<?xml version="1.0" encoding="UTF-8" standalone="no"?>
<svg
   xmlns:dc="http://purl.org/dc/elements/1.1/"
   xmlns:cc="http://creativecommons.org/ns#"
   xmlns:rdf="http://www.w3.org/1999/02/22-rdf-syntax-ns#"
   xmlns:svg="http://www.w3.org/2000/svg"
   xmlns="http://www.w3.org/2000/svg"
   viewBox="0 0 369.35626 440.60251"
   height="440.60251"
   width="369.35626"
   xml:space="preserve"
   version="1.1"
   id="svg2"><metadata
     id="metadata8"><rdf:RDF><cc:Work
         rdf:about=""><dc:format>image/svg+xml</dc:format><dc:type
           rdf:resource="http://purl.org/dc/dcmitype/StillImage" /></cc:Work></rdf:RDF></metadata><defs
     id="defs6"><clipPath
       id="clipPath16"
       clipPathUnits="userSpaceOnUse"><path
         id="path18"
         d="m 0,352.482 295.485,0 L 295.485,0 0,0 0,352.482 Z" /></clipPath></defs><g
     transform="matrix(1.25,0,0,-1.25,0,440.6025)"
     id="g10"><g
       id="g12"><g
         clip-path="url(#clipPath16)"
         id="g14"><g
           transform="translate(178.1261,130.4478)"
           id="g20"><path
             id="path22"
             style="fill:#48474f;fill-opacity:1;fill-rule:evenodd;stroke:none"
             d="M 0,0 C -0.148,0 -0.253,0.135 -0.253,0.312 -0.253,0.479 -0.148,0.629 0,0.629 0.141,0.623 0.252,0.479 0.252,0.306 0.252,0.135 0.141,-0.009 0,0 m 0.852,1.534 c -0.135,0 -0.258,0.139 -0.258,0.312 0,0.176 0.123,0.314 0.258,0.314 0.141,0 0.259,-0.143 0.259,-0.32 0,-0.173 -0.118,-0.306 -0.259,-0.306 m 1.023,1.018 c -0.141,0 -0.259,0.137 -0.259,0.317 0,0.17 0.118,0.309 0.259,0.309 C 2.017,3.178 2.14,3.039 2.14,2.863 2.14,2.689 2.017,2.552 1.875,2.552 M 3.827,3.507 C 3.68,3.516 3.568,3.654 3.568,3.827 c 0,0.168 0.112,0.306 0.259,0.306 0.142,0 0.259,-0.138 0.259,-0.312 0,-0.167 -0.117,-0.314 -0.259,-0.314 m 1.258,0.218 c -0.152,0 -0.271,0.15 -0.271,0.326 0,0.174 0.119,0.311 0.271,0.3 0.13,0 0.247,-0.138 0.247,-0.306 0,-0.176 -0.117,-0.32 -0.247,-0.32 m 1.135,0.97 c -0.135,0 -0.259,0.132 -0.259,0.311 0,0.177 0.124,0.308 0.259,0.308 0.135,0 0.258,-0.131 0.258,-0.308 0,-0.179 -0.123,-0.317 -0.258,-0.311 m 0.735,1.017 c -0.129,0 -0.247,0.143 -0.247,0.32 0,0.168 0.118,0.306 0.247,0.306 0.152,0 0.259,-0.138 0.259,-0.312 0,-0.171 -0.107,-0.314 -0.259,-0.314 M 5.85,6.121 c -0.159,0 -0.294,0.234 -0.294,0.517 0,0.279 0.135,0.511 0.294,0.511 0.153,0 0.282,-0.232 0.282,-0.517 C 6.132,6.355 6.003,6.121 5.85,6.121 M 4.814,7.155 c -0.146,0 -0.269,0.23 -0.269,0.521 0,0.282 0.123,0.517 0.269,0.517 C 4.979,8.187 5.109,7.958 5.109,7.67 5.109,7.385 4.979,7.155 4.814,7.155 M 3.727,8.414 C 3.58,8.428 3.451,8.654 3.451,8.939 c 0,0.277 0.129,0.506 0.276,0.506 0.17,0 0.3,-0.235 0.3,-0.511 0,-0.291 -0.13,-0.52 -0.3,-0.52 m -0.97,1.784 c -0.153,0 -0.277,0.23 -0.277,0.517 0,0.283 0.124,0.512 0.277,0.506 0.165,0 0.294,-0.235 0.294,-0.518 0,-0.275 -0.129,-0.505 -0.294,-0.505 m -0.682,1.823 c -0.159,0 -0.282,0.229 -0.282,0.517 0,0.285 0.123,0.521 0.282,0.521 0.164,0 0.294,-0.236 0.294,-0.521 0,-0.288 -0.13,-0.517 -0.294,-0.517 m -0.341,2.06 c -0.153,0 -0.276,0.235 -0.276,0.518 0,0.282 0.123,0.517 0.276,0.511 0.159,0 0.283,-0.229 0.283,-0.511 0,-0.288 -0.124,-0.518 -0.283,-0.518 m -0.341,2.173 0,0 c -0.159,0 -0.282,0.229 -0.282,0.512 0,0.282 0.123,0.517 0.282,0.517 0.165,-0.006 0.282,-0.235 0.282,-0.517 0,-0.288 -0.117,-0.512 -0.282,-0.512 m 0.823,1 -0.67,-0.174 0,-0.55 L 2.451,16.007 2.48,15.989 2.492,15.948 2.628,15.289 2.64,15.23 2.593,15.195 1.769,14.719 l 0,-0.397 1.023,-0.27 0.059,-0.021 0,-0.07 0,-0.397 0,-0.033 -0.023,-0.029 -0.706,-0.92 0.082,-0.194 1.106,-0.283 0.046,-0.017 0.012,-0.056 0.06,-0.288 0.006,-0.035 -0.024,-0.032 -0.547,-0.753 0.082,-0.253 0.682,-0.053 0.029,0 0.012,-0.012 0.348,-0.229 0.035,-0.029 0,-0.053 L 3.944,9.072 4.709,9.01 4.779,9.01 4.791,8.939 4.909,7.964 5.703,7.752 5.768,7.729 5.762,7.649 5.667,6.826 6.443,7.108 6.508,6.952 5.591,6.614 5.456,6.562 5.474,6.699 5.579,7.596 4.803,7.813 4.744,7.832 4.732,7.885 4.615,8.843 3.851,8.901 l -0.1,0.012 0.012,0.085 0.111,1.259 -0.282,0.182 -0.717,0.071 -0.06,0 -0.023,0.055 -0.111,0.341 -0.012,0.038 0.023,0.042 0.553,0.77 -0.035,0.188 -1.088,0.283 -0.059,0.011 -0.011,0.035 -0.113,0.291 -0.023,0.047 0.041,0.035 0.718,0.942 0,0.306 -1.018,0.282 -0.064,0.014 0,0.065 0,0.512 0,0.055 0.035,0.024 0.817,0.476 -0.111,0.553 -0.911,0.535 -0.054,0.024 0,0.044 0,0.667 0,0.067 0.066,0.017 0.734,0.186 0.047,-0.161 z M 10.8,-3.566 c -0.123,0 -0.211,0.179 -0.211,0.409 0,0.218 0.088,0.399 0.211,0.399 0.094,0 0.188,-0.181 0.188,-0.405 0,-0.224 -0.094,-0.403 -0.188,-0.403 m 0.441,1.32 c -0.099,0 -0.2,0.174 -0.2,0.396 0,0.221 0.101,0.398 0.2,0.398 0.111,0 0.2,-0.183 0.2,-0.398 0,-0.228 -0.089,-0.396 -0.2,-0.396 m 0.512,1.3 c -0.107,0.011 -0.2,0.184 -0.2,0.408 0,0.218 0.093,0.392 0.2,0.392 0.117,0 0.206,-0.174 0.206,-0.392 0,-0.23 -0.089,-0.408 -0.206,-0.408 m 0.341,1.022 c -0.1,0 -0.201,0.189 -0.201,0.403 0,0.224 0.101,0.397 0.201,0.397 0.105,0 0.212,-0.173 0.212,-0.397 0,-0.214 -0.107,-0.403 -0.212,-0.403 m 0.294,0.977 c -0.112,0 -0.212,0.178 -0.212,0.402 0,0.212 0.1,0.397 0.212,0.397 0.105,0 0.188,-0.185 0.188,-0.403 0,-0.218 -0.083,-0.396 -0.188,-0.396 m 0.399,1.131 c -0.111,0 -0.211,0.185 -0.211,0.409 0,0.218 0.1,0.397 0.211,0.397 0.106,0 0.189,-0.179 0.189,-0.403 0,-0.218 -0.083,-0.403 -0.189,-0.403 m -0.3,1.703 -3.169,-7.78 -0.387,-0.143 3.233,8.063 0.323,-0.14 z M 7.502,5.759 6.132,3.66 6.085,3.586 6.003,3.58 C 5.991,3.574 2.722,3.242 2.275,2.558 2.157,2.375 2.005,2.184 1.851,1.979 1.411,1.382 0.852,0.649 0.3,-0.635 l -0.329,0.153 c 0.576,1.311 1.14,2.07 1.598,2.678 0.154,0.191 0.282,0.379 0.411,0.558 0.495,0.741 3.364,1.103 3.893,1.165 l 1.329,2.04 0.3,-0.2 z m -5.38,12.855 -9.36,0.06 0,-7.609 -0.024,0 c 0.035,-0.217 0,-0.884 -0.728,-3.136 -0.989,-3.084 -0.366,-7.285 -0.366,-7.3 L -8.537,0.605 c 0,0.012 -0.612,4.251 0.382,7.371 0.964,3.01 0.811,2.999 0.811,2.999 l -0.07,0.011 0,0.079 0,7.7 0,0.096 0.082,0 9.454,-0.067 0,-0.18 z M -9.19,-0.412 l 7.337,-0.041 0,-0.188 -7.337,0.056 0,0.173 z m 0,-0.614 7.337,-0.047 0,-0.179 -7.337,0.047 0,0.179 z m 0,-0.632 7.337,-0.053 0,-0.164 -7.337,0.043 0,0.174 z m 0,-0.62 7.337,-0.047 0,-0.18 -7.337,0.06 0,0.167 z m 0,-0.609 7.337,-0.052 0,-0.189 -7.337,0.056 0,0.185 z m 0.341,22.38 11.23,-0.073 c 0,0 -1.082,-9.355 5.773,-13.611 3.492,-2.169 6.151,-1.855 8.584,-4.275 1.388,-1.378 0.189,-4.792 -1.129,-5.174 -1.316,-0.379 -2.445,-0.593 -4.344,-0.564 0,0 -5.768,0.206 -7.167,1.608 -1.406,1.414 -5.786,2.378 -5.786,2.378 l -7.637,0.673 c 0,0 -0.629,5.792 -0.148,6.877 0.459,1.082 1.082,3.107 1.082,5.142 0,2.028 -0.458,7.019 -0.458,7.019 m -0.476,-23.709 0,4.671 7.637,-1.689 0,-3.037 -7.637,0.055 z m 3.815,58.025 c 0.071,0.229 0.365,0.476 0.765,0.609 0.506,0.155 0.981,0.073 1.07,-0.203 0.088,-0.271 -0.247,-0.614 -0.753,-0.782 -0.471,-0.147 -0.911,-0.085 -1.058,0.144 L -4.328,54.1 -5.51,53.809 Z m 1.259,-1.713 c -0.142,0.196 -0.142,0.59 0.012,0.972 0.187,0.494 0.564,0.809 0.823,0.7 0.27,-0.103 0.323,-0.591 0.129,-1.077 -0.189,-0.463 -0.524,-0.763 -0.782,-0.722 l 0.323,1.222 -0.505,-1.095 z m 2.957,3.486 c 0.136,-0.206 0.136,-0.592 -0.012,-0.971 -0.2,-0.494 -0.564,-0.808 -0.841,-0.705 -0.258,0.103 -0.317,0.597 -0.117,1.084 0.188,0.471 0.53,0.765 0.776,0.718 l -0.324,-1.217 0.518,1.091 z m -1.223,1.346 c 0.141,-0.191 0.141,-0.576 -0.011,-0.967 -0.206,-0.488 -0.577,-0.803 -0.829,-0.699 -0.271,0.108 -0.318,0.596 -0.119,1.09 0.171,0.45 0.506,0.758 0.777,0.709 l -0.347,-1.208 0.529,1.075 z m -2.487,-0.764 c 0.224,0.067 0.6,-0.023 0.929,-0.27 0.435,-0.327 0.647,-0.759 0.476,-0.989 -0.165,-0.229 -0.652,-0.155 -1.076,0.162 -0.405,0.291 -0.617,0.7 -0.506,0.935 l 1.1,-0.632 -0.923,0.794 z M 15.986,44.84 c 0,0 1.694,-1.35 1.782,-1.578 0.076,-0.23 0.146,-1.203 -0.125,-1.241 -1.316,-0.173 -1.481,2.073 -1.657,2.819 m 3.68,0.191 c -0.188,-0.846 -0.353,-3.407 -1.663,-3.183 -0.271,0.041 -0.395,0.931 -0.077,1.469 0.312,0.54 1.74,1.714 1.74,1.714 M 15.48,43.708 c 0,0 2.175,-1.729 2.288,-2.022 0.099,-0.294 0.2,-1.547 -0.16,-1.596 -1.681,-0.231 -1.892,2.666 -2.128,3.618 m 4.733,0.259 c -0.24,-1.091 -0.452,-4.395 -2.134,-4.108 -0.358,0.057 -0.506,1.212 -0.1,1.897 0.394,0.694 2.234,2.211 2.234,2.211 M 15.48,42.026 c 0,0 2.288,-2.287 2.387,-2.581 0.101,-0.305 0.101,-0.993 -0.259,-1.041 -1.681,-0.222 -1.892,2.673 -2.128,3.622 m 4.733,0.253 c -0.24,-1.088 -0.452,-4.38 -2.134,-4.103 -0.358,0.064 -0.358,0.849 -0.259,1.19 0.106,0.332 2.393,2.913 2.393,2.913 M 15.48,40.125 c 0,0 2.288,-2.076 2.387,-2.341 0.101,-0.272 0.101,-0.896 -0.259,-0.94 -1.681,-0.203 -1.892,2.414 -2.128,3.281 m 4.733,0.217 c -0.24,-0.976 -0.452,-3.959 -2.134,-3.701 -0.358,0.052 -0.358,0.764 -0.259,1.064 0.106,0.312 2.393,2.637 2.393,2.637 M 15.48,38.59 c 0,0 2.288,-2.069 2.387,-2.337 0.101,-0.282 0.101,-0.897 -0.259,-0.938 -1.681,-0.2 -1.892,2.414 -2.128,3.275 m 2.387,7.67 c 0,0 0.658,-1.12 0.658,-1.828 0,-0.718 -0.076,-1.218 -0.804,-1.115 -0.73,0.091 -1.077,0.897 -0.053,2.792 0.717,1.35 0.199,0.151 0.199,0.151 m 2.67,-6.941 c -0.27,-1.114 -0.512,-4.498 -2.423,-4.204 -0.393,0.056 -0.393,0.856 -0.282,1.211 0.105,0.344 2.705,2.993 2.705,2.993 m -0.177,10.495 0.106,0 0,-10.798 -0.106,0 0,10.798 z m -0.764,0.311 0.106,0 0,-6.976 -0.106,0 0,6.976 z m -0.806,-6.97 0,6.97 0.101,0 0,-6.976 -0.101,0.006 z m -0.923,6.982 0.106,0 0,-6.982 -0.106,0 0,6.982 z m -0.764,0.007 0.106,0 0,-6.977 -0.106,0 0,6.977 z m -0.799,0.005 0.106,0 0,-6.982 -0.106,0 0,6.982 z m -0.671,-0.15 0.106,0 0,-6.978 -0.106,0 0,6.978 z m 3.939,-39.645 c 0,0.144 -0.14,11.077 -0.14,11.748 0,0.661 -0.142,0.81 -0.736,0.74 -0.582,-0.068 -1.111,-1.24 -1.111,-1.24 0,0 -0.964,1.999 1.047,2.575 1.987,0.573 1.84,-2.385 1.84,-2.385 0,0 0.147,-9.007 0.065,-10.121 -0.065,-1.106 -0.965,-1.317 -0.965,-1.317 m -0.805,13.74 c -0.289,0.301 -1.112,-0.723 -1.112,-0.723 0,0 0,0.734 -0.211,2.137 -0.229,1.408 -0.665,1.191 -0.965,0.968 -0.294,-0.215 0,-1.623 0,-1.623 l 0,-11.971 -0.74,-1.685 c 0,0 -0.294,0.294 -0.377,1.397 -0.058,1.114 -0.952,14.714 1.189,15.724 2.145,1.018 2.216,-4.224 2.216,-4.224 m 2.358,-8.213 c 0,0 -0.436,11.971 -0.436,13.593 0,1.626 -0.963,1.934 -1.623,1.417 -0.67,-0.512 -0.516,-3.836 -0.516,-3.836 l -1.189,0.89 c 0,0 -0.434,3.928 1.777,4.642 2.21,0.729 2.587,-2.161 2.587,-2.161 0,0 0.299,-11.594 0.222,-13.96 -0.07,-2.361 -0.07,-2.579 -0.446,-2.579 -0.376,0 -0.376,1.994 -0.376,1.994 M 2.31,36.098 c 0,0 -1.099,-2.914 -0.923,-5.607 0.171,-2.684 -0.594,-2.948 -0.682,-3.022 l -1.382,-1.071 -0.676,-0.855 c 0,0 0.047,6.865 2.288,9.711 0.681,0.79 1.375,0.844 1.375,0.844 m -5.85,5.779 0,0 0,2.56 c 0,0 -0.035,0.6 0.282,0.571 0.312,-0.029 0.512,-0.203 0.547,-0.518 0.023,-0.317 0.082,-1.822 0.082,-1.822 L -3.54,41.877 Z m 3.604,2.492 c 0,-0.138 -0.593,-0.455 -0.593,-0.455 0,0 0.264,4.333 0,5.579 -0.124,0.541 0.023,1.446 -0.742,1.464 -0.753,0.018 -0.64,-1.017 -0.64,-1.017 l 0.2,-6.919 -1.382,-1.732 -0.147,-4.181 -1.505,0.976 c 0,0 0.14,1.338 -0.136,5.324 -0.275,3.984 2.565,2.713 2.429,1.99 0.136,2.608 -0.641,5.854 0.999,6.262 1.652,0.397 1.652,-2.764 1.652,-2.764 L 0.064,44.369 Z m -0.694,-10.156 0,0 0,6.732 c 0,0 -0.135,2.328 0.553,1.499 C 0.617,41.618 0.617,41.479 0.481,40.377 0.335,39.283 0.335,34.754 0.335,34.754 L -0.63,34.213 Z m -2.328,-18.379 -0.282,3.286 -0.259,2.619 1.094,13.72 c 0,0 0,0.27 -0.135,4.533 -0.148,4.263 1.228,4.389 2.463,4.377 C 1.158,44.363 1.98,41.883 1.98,41.883 L 2.122,34.189 1.711,29.668 -0.63,23.359 -1.853,14.725 -2.958,15.834 Z m 21.284,15.947 -0.753,-1.693 0,13.661 0.876,0 -0.123,-11.968 z m -33.473,-1.802 -0.346,4.475 5.339,4.095 -0.329,2.24 2.91,1.702 c 0,0 2.417,-5.01 6.884,1.331 1.894,2.74 3.446,-11.552 20.308,-19.584 0,1.546 -0.852,-10.151 -0.852,-10.151 L 24.958,6.82 23.753,-6.256 9.295,-10.798 c 0,0 -1.546,-0.679 -3.269,2.252 -1.716,2.94 -11.7,1.29 -11.7,1.29 l -1.205,3.106 c 0,0 -2.064,0.531 -3.44,0.367 -1.387,-0.162 -5.174,-0.48 -4.645,1.072 0.518,1.541 0.341,2.402 0.341,2.402 0,0 0,1.379 -1.205,1.729 -1.205,0.35 -1.035,0.18 -1.035,0.18 l 0.171,3.445 -2.587,-0.332 c 0,0 -1.365,-0.506 -1.2,2.078 0.176,2.575 0.347,5.494 0.347,5.494 l -0.676,4.486 3.081,2.384 -1.552,8.616 4.132,2.208 z m -48.558,71.075 0.023,-0.006 1.923,-0.398 0.965,-1.057 0.476,-1.056 0.288,-0.673 -1.064,-1.055 -1.058,-0.091 -1.811,2.128 0.481,-2.784 -1.057,-0.191 -1.253,2.028 0,-2.211 -1.617,0.109 -0.294,2.499 -0.964,-2.672 -1.152,0.294 c 0,0 0,4.81 3.28,5.412 -0.035,-0.426 -0.047,-0.973 -0.012,-1.608 0.083,-1.611 1.353,-0.461 2.846,1.332 m 62.97,19.64 0,4.286 4.95,-0.035 0,-4.289 -4.95,0.038 z m 2.128,10.566 0.717,-0.012 0,-0.729 0.658,-0.006 0,-0.723 -0.658,0 0,-1.914 -0.717,0 0,1.92 -0.665,0.006 0,0.722 0.665,0 0,0.736 z m -1.541,-3.046 3.787,-0.024 c 0.282,0 0.505,-0.235 0.505,-0.514 l 0,-0.938 c 0,-0.276 -0.223,-0.506 -0.505,-0.506 l -3.787,0.024 c -0.27,0.006 -0.494,0.235 -0.494,0.517 l 0,0.935 c 0,0.282 0.224,0.512 0.494,0.506 m -1.987,-1.723 7.85,-0.058 c 0.288,-0.009 0.528,-0.23 0.528,-0.515 l 0,-0.265 c 0,-0.282 -0.24,-0.511 -0.528,-0.511 l -7.85,0.055 c -0.282,0.012 -0.517,0.237 -0.517,0.518 l 0,0.27 c 0,0.277 0.235,0.506 0.517,0.506 m 5.186,-3.09 0,0 0,-0.114 0,-2.558 -2.605,0.018 0,2.666 2.605,-0.012 z m -2.57,0.012 c 0.066,0.532 0.618,0.935 1.271,0.929 0.676,-0.006 1.223,-0.423 1.299,-0.941 l -2.57,0.012 z m -0.035,0 0.035,0 -0.035,0 z m 8.391,-21.216 2.774,-0.023 0,-0.759 -2.774,0.023 0,0.759 z m -16.569,0.115 2.787,-0.024 0,-0.758 -2.787,0.024 0,0.758 z m -15.487,0.103 2.793,-0.012 0,-0.764 -2.793,0.017 0,0.759 z m 46.472,-0.32 2.787,-0.025 0,-0.758 -2.787,0.024 0,0.759 z m -14.235,-0.806 2.423,-0.006 0,-0.633 -2.423,0.025 0,0.614 z m -16.574,0.12 2.423,-0.012 0,-0.626 -2.423,0.018 0,0.62 z m -15.474,0.109 2.416,-0.012 0,-0.625 -2.416,0.012 0,0.625 z m 46.471,-0.327 2.41,-0.011 0,-0.626 -2.41,0.017 0,0.62 z m -14.222,-0.649 2.022,-0.012 0,-0.155 -2.022,0.018 0,0.149 z m -16.575,0.114 2.029,-0.011 0,-0.15 -2.029,0.012 0,0.149 z m -15.486,0.115 2.034,-0.017 0,-0.15 -2.034,0.011 0,0.156 z m 46.483,-0.326 2.023,-0.017 0,-0.151 -2.023,0.012 0,0.156 z m -14.264,-0.191 1.717,-0.012 0,-8.122 -1.717,0.012 0,8.122 z m 2.234,-9.157 -2.774,0.029 0,0.765 2.774,-0.03 0,-0.764 z m -0.17,0.764 -2.423,0.018 0,0.764 2.423,-0.018 0,-0.764 z m -0.2,0.518 -2.022,0.006 0,0.763 2.022,-0.017 0,-0.752 z m -33.931,8.101 1.717,-0.011 0,-8.125 -1.717,0.011 0,8.125 z m 46.478,-0.323 1.711,-0.011 0,-8.129 -1.711,0.018 0,8.122 z m -44.243,-8.831 -2.787,0.024 0,0.758 2.787,-0.012 0,-0.77 z M 26.028,91 l -2.793,0.018 0,0.763 2.793,-0.017 0,-0.764 z m -46.666,1.096 -2.416,0.012 0,0.758 2.416,-0.017 0,-0.753 z m 46.478,-0.326 -2.41,0.011 0,0.759 2.41,-0.012 0,-0.758 z m -46.677,0.826 -2.017,0.023 0,0.753 2.017,-0.012 0,-0.764 z m 46.488,-0.321 -2.022,0.018 0,0.753 2.022,-0.012 0,-0.759 z m -32.866,8.094 1.705,-0.012 0,-8.117 -1.705,0 0,8.129 z m 2.234,-9.146 -2.775,0.011 0,0.765 2.775,-0.023 0,-0.753 z m -0.175,0.753 -2.417,0.023 0,0.759 2.417,-0.012 0,-0.77 z m -0.195,0.511 -2.022,0.012 0,0.765 2.022,-0.024 0,-0.753 z m 4.427,4.839 c 0.107,0.768 0.483,1.446 1.035,1.923 0.559,0.467 1.276,0.752 2.058,0.746 0.782,0 1.499,-0.303 2.046,-0.778 0.553,-0.486 0.941,-1.174 1.047,-1.932 l 0.023,-0.168 0.012,0 0,-0.259 0,-5.421 -6.256,0.045 0,5.418 0,0.252 0.012,0 0.023,0.174 z m -0.358,0.224 0,0 c 0.135,0.796 0.57,1.487 1.146,1.993 0.617,0.529 1.423,0.855 2.305,0.85 0.882,-0.012 1.682,-0.338 2.305,-0.879 0.587,-0.518 1,-1.218 1.14,-2.012 l 0.066,0 0,-0.193 0,-0.462 0,-5.613 0,-0.193 -0.201,0 -6.637,0.056 -0.183,0 0,0.191 0,5.612 0,0.458 0,0.192 0.059,0 z m -0.494,0.39 c 0.159,0.85 0.641,1.591 1.311,2.126 0.705,0.567 1.629,0.897 2.634,0.897 1,-0.012 1.929,-0.359 2.622,-0.926 0.677,-0.547 1.152,-1.294 1.329,-2.149 l 0.059,0 0,-0.195 0,-0.494 0,-5.965 0,-0.199 -0.188,0 -7.643,0.062 -0.195,0 0,0.191 0,5.968 0,0.494 0,0.19 0.071,0 z m 0.359,-0.229 7.173,-0.047 0.023,-0.168 0.012,0 0,-0.285 0,-5.779 -7.244,0.056 0,5.768 0,0.294 0.036,0.161 z m 24.588,20.67 2.569,-0.012 0,-1.781 -2.569,0.023 0,1.77 z m -44.837,0.279 2.569,-0.021 0,-1.776 -2.569,0.018 0,1.779 z m -1.082,0.047 1.728,-0.018 0,-1.769 -1.728,0.006 0,1.781 z m 2.752,-0.023 2.569,-0.012 0,-1.785 -2.569,0.027 0,1.77 z m 1.81,-0.012 2.564,-0.012 0,-1.785 -2.564,0.018 0,1.779 z m 1.793,-0.012 2.564,-0.021 0,-1.77 -2.564,0.018 0,1.773 z m 1.793,-0.015 2.576,-0.024 0,-1.764 -2.576,0.012 0,1.776 z m 1.812,-0.012 2.552,-0.018 0,-1.769 -2.552,0.017 0,1.77 z m 1.787,-0.012 2.575,-0.023 0,-1.77 -2.575,0.018 0,1.775 z m 1.799,-0.012 2.575,-0.017 0,-1.776 -2.575,0.018 0,1.775 z m 1.8,-0.017 2.575,-0.018 0,-1.769 -2.575,0.017 0,1.77 z m 1.798,-0.018 2.57,-0.006 0,-1.775 -2.57,0.018 0,1.763 z m 1.793,0 2.57,-0.023 0,-1.773 -2.57,0.021 0,1.775 z m 1.806,-0.012 2.575,-0.026 0,-1.769 -2.575,0.017 0,1.778 z m 1.799,-0.011 2.563,-0.027 0,-1.775 -2.563,0.018 0,1.784 z m 1.799,-0.015 2.575,-0.017 0,-1.782 -2.575,0.024 0,1.775 z m 1.787,-0.012 2.575,-0.023 0,-1.781 -2.575,0.023 0,1.781 z m 1.805,-0.017 2.57,-0.018 0,-1.769 -2.57,0.011 0,1.776 z m 1.799,-0.012 2.57,-0.023 0,-1.764 -2.57,0.012 0,1.775 z m 1.793,-0.012 2.575,-0.023 0,-1.764 -2.575,0.018 0,1.769 z m 1.8,-0.011 2.575,-0.024 0,-1.769 -2.575,0.017 0,1.776 z m 1.799,-0.012 2.581,-0.018 0,-1.775 -2.581,0.018 0,1.775 z m 1.805,-0.018 2.569,-0.011 0,-1.776 -2.569,0.018 0,1.769 z m 1.799,-0.005 2.57,-0.018 0,-1.778 -2.57,0.02 0,1.776 z m 1.793,-0.012 2.576,-0.018 0,-1.778 -2.576,0.012 0,1.784 z m 1.799,-0.018 2.564,-0.014 0,-1.776 -2.564,0.018 0,1.772 z m 1.799,-0.009 2.564,-0.023 0,-1.77 -2.564,0.012 0,1.781 z m 3.605,-0.029 2.563,-0.017 0,-1.77 -2.563,0.012 0,1.775 z m 0.887,0 2.575,-0.023 0,-1.771 -2.575,0.013 0,1.781 z m 0.905,-0.012 2.57,-0.017 0,-1.771 -2.57,0.019 0,1.769 z m -50.563,-27.392 0,13.387 c 3.469,8.46 14.616,8.431 17.592,-0.368 2.916,8.666 13.522,8.858 17.003,-0.105 2.575,8.308 13.405,8.831 15.746,-0.121 l 0,-13.102 -50.341,0.309 z m 0.712,30.764 0.1,0.109 2.127,-0.018 1.23,-2.01 1.676,-0.021 1.376,1.693 2.598,-0.017 1.828,-1.867 1.217,-0.006 1.212,1.684 1.375,0 1.835,-1.564 1.528,0.608 1.217,0.921 0.159,1.384 0.917,0.615 0.148,0.914 0,1.091 8.401,-0.059 0.259,-2.62 0.94,-0.267 0.142,-1.902 1.094,-1.449 1.481,0.059 1.264,1.825 1.829,-0.012 1.834,-1.866 1.211,-0.006 1.164,2.029 2.493,-0.012 1.541,-2.211 1.363,-0.012 1.835,1.844 2.14,-0.019 1.976,-2.016 0.911,-0.015 0,-29.57 -52.421,0.355 -4.551,0.035 0,29.586 0,22.812 4.551,-0.031 0,-19.994 z M -48.889,61.5 c 0,0.053 0.047,0.103 0.095,0.108 0.053,0.006 0.1,-0.038 0.105,-0.09 0,0 0.071,-0.718 0.353,-0.759 0.047,-0.006 0.095,-0.056 0.083,-0.109 -0.013,-0.047 -0.071,-0.086 -0.118,-0.08 -0.435,0.063 -0.518,0.924 -0.518,0.924 l 0,0.006 z m 1.553,1.522 c -0.012,0.047 0.023,0.109 0.07,0.115 0.059,0.006 0.106,-0.03 0.117,-0.091 0,0 0.166,-0.988 0.271,-0.782 0.06,0.115 0.101,0.212 0.13,0.305 0.117,0.338 0.199,0.556 0.769,0.477 0.16,-0.006 0.271,-0.047 0.372,-0.109 0.111,-0.053 0.175,-0.138 0.223,-0.22 0.035,-0.104 0.047,-0.206 0.035,-0.315 -0.011,-0.168 -0.094,-0.356 -0.2,-0.555 -0.188,-0.329 -0.776,-0.788 -1.682,-1.071 -0.669,-0.212 -1.516,-0.338 -2.504,-0.27 -0.047,0 -0.094,0.047 -0.094,0.102 0.012,0.054 0.064,0.095 0.111,0.083 0.953,-0.058 1.777,0.068 2.417,0.268 0.87,0.275 1.423,0.685 1.581,0.984 0.101,0.176 0.159,0.338 0.171,0.477 0.024,0.079 0,0.149 -0.023,0.211 -0.012,0.053 -0.059,0.109 -0.136,0.144 -0.059,0.036 -0.17,0.065 -0.294,0.091 -0.417,0.041 -0.476,-0.12 -0.559,-0.367 -0.035,-0.097 -0.082,-0.206 -0.146,-0.326 -0.37,-0.709 -0.629,0.844 -0.629,0.849 m 0.605,0.464 c 0.112,0.065 1.124,0.6 1.817,-0.17 0.058,-0.064 0.118,-0.127 0.159,-0.191 0.241,-0.326 0.323,-0.655 0.265,-0.976 -0.071,-0.333 -0.277,-0.655 -0.635,-0.982 -0.107,-0.103 -0.235,-0.196 -0.371,-0.3 -0.958,-0.693 -3.775,-0.676 -4.592,-0.649 l 3.357,3.268 z m -3.663,-3.289 3.539,3.434 c 0.013,0.012 0.013,0.023 0.013,0.023 l 0.012,0 c 0.035,0.024 1.234,0.703 2.063,-0.206 0.059,-0.07 0.123,-0.137 0.17,-0.208 0.282,-0.374 0.371,-0.753 0.294,-1.133 -0.058,-0.367 -0.305,-0.728 -0.687,-1.084 -0.112,-0.109 -0.247,-0.211 -0.394,-0.32 -1.188,-0.847 -4.939,-0.68 -4.939,-0.68 -0.059,0.006 -0.106,0.047 -0.106,0.104 0,0.029 0.012,0.047 0.035,0.07 m 2.229,1.999 c -0.006,0.05 0.041,0.097 0.088,0.103 0,0 0.106,-0.035 0.106,-0.097 0,0 0.094,-1.047 0.74,-1.114 0.047,-0.006 0.082,-0.047 0.082,-0.106 -0.011,-0.062 -0.052,-0.091 -0.105,-0.086 -0.811,0.086 -0.911,1.3 -0.911,1.3 m 27.992,-10.634 c 0,0 -0.105,-1.208 -0.911,-1.287 0,0 -0.095,0.038 -0.106,0.092 0,0.055 0.041,0.103 0.088,0.109 0.647,0.052 0.735,1.096 0.735,1.096 0.006,0.065 0.052,0.1 0.1,0.094 0,0 0.106,-0.047 0.094,-0.104 m 0.717,-0.702 c 0,0 -0.082,-0.873 -0.517,-0.925 -0.048,-0.006 -0.1,0.029 -0.112,0.076 -0.006,0.067 0.041,0.108 0.041,0.108 0.329,0.042 0.395,0.759 0.395,0.759 0.011,0.056 0.052,0.097 0.111,0.085 0,0 0.082,-0.05 0.082,-0.103 m -1.54,1.546 c 0,0 -0.259,-1.557 -0.647,-0.844 -0.058,0.125 -0.094,0.237 -0.13,0.339 -0.087,0.242 -0.146,0.403 -0.558,0.356 -0.135,-0.012 -0.229,-0.035 -0.306,-0.076 -0.064,-0.038 -0.111,-0.085 -0.135,-0.148 -0.023,-0.053 -0.035,-0.12 -0.023,-0.209 0.023,-0.137 0.07,-0.297 0.176,-0.475 0.165,-0.303 0.718,-0.73 1.576,-1.018 0.641,-0.206 1.47,-0.344 2.428,-0.285 0.053,0 0.1,-0.035 0.1,-0.094 0.012,-0.056 -0.035,-0.097 -0.035,-0.097 -1.035,-0.056 -1.876,0.08 -2.552,0.3 -0.906,0.303 -1.5,0.764 -1.681,1.097 -0.118,0.199 -0.189,0.391 -0.212,0.553 0,0.123 0,0.222 0.047,0.314 0.041,0.097 0.106,0.161 0.212,0.229 0.099,0.052 0.223,0.091 0.387,0.109 0.565,0.059 0.636,-0.165 0.759,-0.5 0.029,-0.091 0.076,-0.194 0.123,-0.303 0.118,-0.209 0.277,0.78 0.277,0.78 0.011,0.058 0.053,0.087 0.112,0.082 0.058,-0.006 0.094,-0.053 0.082,-0.11 m 3.057,-2.877 0,0 c 0.018,-0.011 0.03,-0.036 0.03,-0.053 0,-0.068 -0.041,-0.103 -0.101,-0.109 0,0 -3.763,-0.121 -4.95,0.746 -0.141,0.11 -0.259,0.218 -0.388,0.327 -0.377,0.353 -0.611,0.72 -0.694,1.093 -0.07,0.38 0.036,0.747 0.294,1.127 0.054,0.068 0.118,0.138 0.188,0.205 0.824,0.903 2.011,0.197 2.058,0.174 l 0,-0.006 c 0,0 0.012,0 0.023,-0.006 l 3.54,-3.498 z m -3.674,3.342 3.369,-3.318 c -0.818,-0.012 -3.628,0.02 -4.598,0.717 -0.13,0.109 -0.265,0.211 -0.365,0.308 -0.353,0.329 -0.565,0.656 -0.641,0.994 -0.064,0.318 0.03,0.65 0.265,0.967 0.047,0.067 0.094,0.127 0.159,0.194 0.699,0.765 1.699,0.206 1.811,0.138 m -5.203,28.645 c 0.123,-0.132 0.205,-0.299 0.205,-0.499 0,-0.192 -0.082,-0.369 -0.205,-0.492 -0.124,-0.129 -0.306,-0.206 -0.495,-0.2 -0.2,0 -0.376,0.077 -0.505,0.218 -0.118,0.117 -0.201,0.294 -0.201,0.488 0,0.192 0.083,0.365 0.201,0.49 0.129,0.133 0.305,0.201 0.505,0.201 0.189,0 0.371,-0.079 0.495,-0.206 m -0.495,0.603 c 0.306,0 0.577,-0.127 0.765,-0.324 0.193,-0.205 0.317,-0.476 0.317,-0.778 0,-0.306 -0.124,-0.571 -0.317,-0.771 -0.188,-0.197 -0.459,-0.317 -0.765,-0.317 -0.299,0 -0.582,0.132 -0.776,0.323 -0.2,0.2 -0.323,0.477 -0.323,0.779 0,0.306 0.123,0.571 0.323,0.77 0.194,0.197 0.477,0.318 0.776,0.318 m 1.341,0.24 c 0.347,-0.349 0.559,-0.822 0.559,-1.342 0,-0.536 -0.212,-1.006 -0.559,-1.347 -0.342,-0.338 -0.823,-0.55 -1.341,-0.55 -0.529,0.006 -1,0.224 -1.346,0.573 -0.347,0.344 -0.553,0.818 -0.553,1.35 0,0.518 0.206,0.987 0.553,1.328 0.346,0.351 0.817,0.557 1.346,0.547 0.518,0 0.999,-0.214 1.341,-0.559 m -1.341,0.959 c 0.629,-0.006 1.2,-0.27 1.612,-0.681 0.423,-0.421 0.67,-0.994 0.67,-1.632 0,-0.632 -0.247,-1.202 -0.67,-1.614 -0.412,-0.409 -0.983,-0.667 -1.612,-0.662 -0.64,0.012 -1.211,0.271 -1.617,0.694 -0.423,0.409 -0.67,0.994 -0.67,1.62 0,0.632 0.247,1.196 0.67,1.611 0.406,0.411 0.977,0.664 1.617,0.664 M -33.002,47.7 c 0.129,-0.132 0.2,-0.303 0.2,-0.5 0,-0.193 -0.071,-0.367 -0.2,-0.493 -0.123,-0.121 -0.306,-0.2 -0.506,-0.2 -0.182,0.006 -0.358,0.085 -0.494,0.206 -0.123,0.132 -0.205,0.311 -0.205,0.499 0,0.191 0.082,0.368 0.205,0.5 0.136,0.12 0.312,0.206 0.494,0.206 0.2,0 0.383,-0.092 0.506,-0.218 m -0.506,0.6 c 0.312,0 0.588,-0.123 0.788,-0.329 0.189,-0.2 0.312,-0.465 0.312,-0.771 0,-0.303 -0.123,-0.573 -0.312,-0.776 -0.2,-0.194 -0.476,-0.315 -0.788,-0.309 -0.294,0 -0.576,0.127 -0.764,0.327 -0.2,0.197 -0.33,0.47 -0.33,0.783 0,0.293 0.13,0.564 0.33,0.763 0.188,0.195 0.47,0.312 0.764,0.312 m 1.347,0.247 c 0.335,-0.347 0.558,-0.829 0.558,-1.347 0,-0.522 -0.223,-1.005 -0.558,-1.343 -0.335,-0.343 -0.818,-0.546 -1.347,-0.546 -0.529,0 -0.987,0.214 -1.34,0.564 -0.336,0.344 -0.552,0.826 -0.552,1.35 0,0.522 0.216,0.999 0.552,1.337 0.353,0.34 0.811,0.546 1.34,0.541 0.529,0 1.012,-0.212 1.347,-0.556 m -1.347,0.952 c 0.635,0 1.211,-0.259 1.629,-0.679 0.417,-0.424 0.67,-0.994 0.67,-1.62 0,-0.638 -0.253,-1.211 -0.67,-1.619 -0.418,-0.415 -0.994,-0.668 -1.629,-0.662 -0.629,0.006 -1.193,0.265 -1.61,0.685 -0.412,0.409 -0.683,0.988 -0.683,1.621 0,0.63 0.271,1.205 0.683,1.613 0.417,0.414 0.981,0.661 1.61,0.661 m 2.517,6.858 c -0.106,0.122 -0.106,0.301 0,0.421 0.13,0.115 0.305,0.115 0.423,0 0.024,-0.011 3.293,-3.322 4.692,-3.913 0.165,-0.067 0.229,-0.229 0.165,-0.379 -0.06,-0.144 -0.235,-0.217 -0.389,-0.15 -1.51,0.627 -4.874,4.016 -4.891,4.021 m -6.609,7.182 c -0.093,0.133 -0.058,0.313 0.082,0.409 0.124,0.103 0.294,0.068 0.395,-0.07 0.017,-0.012 4.051,-5.63 4.238,-6.268 0.024,-0.096 0.083,-0.264 0.189,-0.482 0.447,-1.103 1.434,-3.457 0.835,-5.589 -0.041,-0.161 -0.201,-0.252 -0.359,-0.202 -0.159,0.041 -0.253,0.202 -0.2,0.361 0.529,1.944 -0.394,4.16 -0.829,5.206 -0.094,0.242 -0.177,0.421 -0.2,0.544 -0.164,0.547 -4.127,6.073 -4.151,6.091 m 4.257,7.727 c 0.024,0.035 0.047,0.064 0.082,0.088 0,0 0.136,0.108 0.411,0.258 1.518,1.252 2.735,5.033 2.735,5.054 0.052,0.149 0.217,0.231 0.382,0.185 0.141,-0.053 0.235,-0.218 0.176,-0.373 0,-0.012 -0.829,-2.582 -2.034,-4.298 1.07,0.379 2.669,0.746 4.833,0.728 0.17,0 0.3,-0.132 0.3,-0.303 0,-0.161 -0.13,-0.288 -0.3,-0.282 -3.151,0.025 -5.01,-0.769 -5.75,-1.193 -0.083,-0.065 -0.165,-0.117 -0.247,-0.167 -0.823,-0.524 -1.658,-1.582 -2.376,-2.644 -0.74,-1.075 -1.328,-2.148 -1.634,-2.701 -0.352,-0.653 -1.282,-1.681 -2.351,-2.464 -0.841,-0.608 -1.794,-1.09 -2.67,-1.155 -0.153,-0.018 -0.294,0.101 -0.306,0.265 -0.012,0.162 0.106,0.305 0.259,0.317 0.753,0.056 1.6,0.488 2.363,1.044 1.012,0.74 1.87,1.679 2.188,2.27 0.311,0.564 0.911,1.667 1.652,2.757 0.682,0.999 1.487,1.998 2.287,2.614 m 5.562,-14.464 c 2.393,-1.132 4.716,-3.713 3.505,-5.322 -1.201,-1.625 -3.334,0.53 -4.358,1.047 -1.028,0.524 -0.775,1.293 -1.452,-0.323 -0.682,-1.626 -0.682,-2.566 -2.48,-2.464 -1.8,0.098 -1.717,4.969 -1.717,4.969 0,0 -2.811,3.103 -4.105,4.906 -1.281,1.805 -1.964,1.385 -2.904,1.047 -0.94,-0.345 -1.799,-0.592 -2.74,1.04 -0.935,1.632 2.222,2.896 3.505,3.481 1.287,0.596 0.858,1.367 1.287,2.126 0.429,0.769 1.793,4.185 3.933,5.371 2.134,1.184 3.081,2.792 3.081,2.792 0,0 0.423,2.396 2.817,3.24 2.404,0.832 1.022,-3.775 1.022,-3.775 l 0.524,-0.085 c 0,0 1.711,0.159 3.169,0.144 1.44,-0.006 1.181,-1.035 0.846,-2.484 -0.346,-1.452 -1.023,-1.705 -1.023,-1.705 0,0 -7.526,-1.571 -8.39,-3.792 -0.846,-2.211 -0.082,-4.355 1.546,-7.106 1.629,-2.752 3.934,-3.107 3.934,-3.107 m 3.857,13.952 0.088,-2.141 c 0,0 0.864,-2.057 -2.229,-2.46 -3.068,-0.409 -2.986,-0.409 -2.986,-1.096 0,-0.686 0.506,-1.205 1.799,-1.126 1.282,0.079 3.328,0.494 3.504,-0.62 0.171,-1.115 -0.341,-1.879 -1.023,-2.217 -0.694,-0.335 -0.176,-1.455 -0.088,-1.967 0.088,-0.512 -0.606,-2.049 -1.875,-2.302 -1.294,-0.247 -4.022,1.993 -4.962,3.808 -0.953,1.799 -2.246,5.693 -0.265,7.181 2.828,2.102 4.979,2.102 8.037,2.94 M -91.503,21.907 c 0,0 -1.717,0.006 11.218,-2.596 2.923,-0.594 7.102,-0.673 10.26,-0.956 10.748,-0.963 20.49,-0.781 22.689,-0.878 2.881,-0.138 11.006,2.095 11.006,2.095 0,0 1.023,-1.375 -1.034,-1.939 -2.058,-0.553 -7.797,-4.86 -7.797,-4.86 l -17.509,0.35 0,2.052 -0.682,0.006 0,-2.052 -1.611,0.035 0,1.917 -0.67,0.006 0,-1.911 -5.615,0.115 c 0,0 -6.526,0.62 -7.673,0.626 -1.146,0.006 -4.01,1.511 -4.01,1.511 l -3.427,2.543 -5.503,2.907 0.358,1.029 z m -1.405,-9.584 c 0,0 2.31,-2.78 4.103,-2.796 1.782,-0.006 4.017,2.879 6.48,2.417 2.452,-0.465 3.31,-2.674 5.968,-2.769 2.657,-0.109 6.09,3.581 8.089,2.673 1.735,-0.777 3.182,-2.85 4.734,-2.723 2.269,0.187 4.58,2.843 6.75,2.813 2.18,-0.038 4.074,-2.126 7.06,-2.68 2.682,0.429 4.24,2.21 6.709,1.969 2.452,-0.241 3.346,-2.258 5.791,-1.608 1.482,0.385 2.07,0.626 2.311,0.758 l 0,-2.787 -0.012,-1.058 C -35.554,6.097 -38.17,4.43 -39.34,5.412 -40.675,6.544 -41.909,7.867 -43.697,7.655 -45.484,7.446 -48.412,4.166 -51.729,5.7 -55.038,7.24 -55.168,8.631 -62,5.947 -67.32,3.846 -68.208,10.016 -73.806,5.729 -77.815,3.954 -81.19,7.27 -81.19,7.27 c 0,0 -2.705,1.332 -5.603,-1.106 -2.899,-2.439 -6.168,1.715 -6.168,1.715 l 0.053,4.444 z m 0,-6.755 c 0,0 2.31,-2.775 4.103,-2.787 1.782,-0.006 4.017,2.869 6.48,2.407 2.452,-0.458 3.31,-2.66 5.968,-2.774 2.657,-0.109 6.09,3.586 8.089,2.678 1.735,-0.777 3.182,-2.672 4.734,-2.552 2.269,0.19 4.58,2.672 6.75,2.643 2.18,-0.038 4.074,-2.125 7.06,-2.672 2.682,0.426 4.24,2.202 6.709,1.961 2.452,-0.242 3.346,-2.252 5.791,-1.603 1.411,0.373 2.011,0.597 2.276,0.729 l -0.053,-3.866 c -0.718,-0.485 -3.204,-2.022 -4.339,-1.07 -1.335,1.132 -2.569,2.461 -4.357,2.24 -1.787,-0.205 -4.715,-3.486 -8.032,-1.952 -3.309,1.529 -3.439,2.925 -10.271,0.236 -5.32,-2.084 -6.208,4.078 -11.806,-0.2 -4.009,-1.788 -7.384,1.526 -7.384,1.526 0,0 -2.705,1.34 -5.603,-1.097 -2.899,-2.435 -6.168,1.708 -6.168,1.708 l 0.053,4.445 z m 0,-6.665 c 0,0 2.31,-2.784 4.103,-2.796 1.782,-0.005 4.017,2.879 6.48,2.417 2.452,-0.464 3.31,-2.674 5.968,-2.781 2.657,-0.102 6.09,3.587 8.089,2.685 1.735,-0.777 3.182,-2.844 4.734,-2.723 2.269,0.188 4.58,2.843 6.75,2.814 2.18,-0.039 4.074,-2.138 7.06,-2.681 2.682,0.434 4.24,2.204 6.709,1.969 2.452,-0.241 3.346,-2.258 5.791,-1.608 1.306,0.344 1.917,0.568 2.2,0.705 l -0.036,-3.877 c -0.799,-0.535 -3.174,-1.958 -4.28,-1.029 -1.335,1.126 -2.569,2.443 -4.357,2.24 -1.787,-0.212 -4.715,-3.486 -8.032,-1.958 -3.309,1.529 -3.439,2.937 -10.271,0.247 -5.32,-2.095 -6.208,4.057 -11.806,-0.217 -4.009,-1.776 -7.384,1.54 -7.384,1.54 0,0 -2.705,1.332 -5.603,-1.106 -2.899,-2.433 -6.168,1.715 -6.168,1.715 l 0.053,4.444 z m 21.607,38.355 c -1.341,0.303 -1.187,1.849 0.388,1.579 0.718,-0.126 1.505,-0.259 2.281,-0.415 0.088,-0.049 0.118,-0.264 0.582,-1.89 l -3.251,0.726 z m 4.927,-0.973 -0.465,1.582 21.714,-3.925 -0.318,-1.728 -20.931,4.071 z m 0.059,-0.15 9.759,-1.957 c 0,0 0.471,-4.413 -2.998,-4.39 -3.451,0.03 -6.761,6.347 -6.761,6.347 m 10.859,-0.229 c 1.053,-2.922 -0.688,-6.623 -3.933,-7.525 -3.304,-0.93 -5.973,3.498 -7.55,6.025 -1.575,2.529 -4.409,11.513 2.823,11.145 7.243,-0.362 8.66,-9.645 8.66,-9.645 m -8.966,8.235 c 0,0 4.403,0.446 7.702,-8.079 -0.153,0.005 -10.071,1.799 -10.071,1.799 0,0 -1.405,6.773 2.369,6.28 m -12.57,-14.147 0,0 c 0.352,10.703 9.524,15.043 9.548,15.069 0.059,0.024 0.147,0.036 0.217,0.012 0.148,-0.05 0.236,-0.218 0.195,-0.374 -2.993,-9.719 4.245,-14.281 5.938,-15.365 0.329,-0.191 0.505,-0.306 0.505,-0.494 0,-0.151 -0.059,-0.238 -0.164,-0.282 -1.117,-1.156 -2.581,-2.247 -4.051,-3.172 -2.593,-1.632 -5.169,-2.77 -5.545,-2.843 -0.047,-0.006 -0.093,-0.012 -0.129,-0.012 -0.435,0.006 -1.811,0.356 -3.186,1.252 -1.359,0.908 -2.729,2.373 -3.182,4.619 -0.088,0.488 -0.146,1.011 -0.146,1.575 l 0,0.015 z m 9.207,14.208 c -2.587,-9.686 4.644,-14.258 6.385,-15.351 0.036,-0.021 0.059,-0.027 0.083,-0.021 -1.059,-1.076 -2.435,-2.081 -3.811,-2.942 -2.527,-1.603 -4.985,-2.705 -5.338,-2.764 l 0,-0.006 -0.012,0 c -0.377,0.006 -1.599,0.318 -2.857,1.15 -1.259,0.843 -2.522,2.19 -2.935,4.245 -0.087,0.456 -0.134,0.943 -0.134,1.461 0.294,8.713 6.614,13.067 8.619,14.228 m 11.159,-12.703 c 0.159,-0.02 0.259,-0.17 0.247,-0.326 -0.023,-0.155 -0.17,-0.277 -0.329,-0.253 l -7.091,0.965 c -0.164,0.023 -0.282,0.167 -0.253,0.329 0.012,0.165 0.159,0.27 0.323,0.253 l 7.103,-0.968 z m 0.224,1.829 c 0.17,-0.023 0.27,-0.174 0.247,-0.332 -0.012,-0.156 -0.165,-0.271 -0.324,-0.247 l -8.472,1.319 c -0.164,0.024 -0.277,0.174 -0.247,0.332 0.023,0.162 0.171,0.272 0.329,0.253 l 8.467,-1.325 z m -8.343,-7.382 c 0.158,-0.029 0.264,-0.179 0.229,-0.335 -0.023,-0.159 -0.176,-0.264 -0.324,-0.241 -0.017,0.006 -5.162,0.932 -8.849,-1.276 -0.134,-0.079 -0.311,-0.032 -0.405,0.1 -0.076,0.141 -0.029,0.321 0.112,0.406 3.857,2.316 9.219,1.346 9.219,1.346 l 0.018,0 z m 2.916,3.422 c 0.159,0 0.294,-0.126 0.3,-0.297 0,-0.156 -0.129,-0.288 -0.288,-0.294 0,0 -10.983,-0.144 -13.529,-2.677 -0.118,-0.116 -0.305,-0.11 -0.418,0 -0.105,0.111 -0.105,0.298 0,0.414 2.717,2.695 13.894,2.854 13.935,2.854 m -3.111,2.649 c 0.171,0.017 0.318,-0.109 0.318,-0.274 0.023,-0.155 -0.106,-0.294 -0.271,-0.306 0,0 -10.635,-0.722 -11.593,-1.775 -0.101,-0.121 -0.288,-0.121 -0.413,-0.017 -0.111,0.108 -0.134,0.293 -0.023,0.414 1.111,1.228 11.953,1.958 11.953,1.958 l 0.029,0 z m -11.665,-0.138 c -0.14,-0.057 -0.317,0.023 -0.364,0.173 -0.064,0.15 0.024,0.327 0.171,0.38 0,0 7.931,2.816 10.019,3.027 0.158,0.018 0.311,-0.088 0.323,-0.265 0.035,-0.161 -0.095,-0.294 -0.259,-0.311 -2.028,-0.211 -9.86,-2.998 -9.86,-2.998 l -0.03,-0.006 z m 0.983,3.183 c -0.165,-0.029 -0.312,0.08 -0.335,0.248 -0.025,0.161 0.088,0.305 0.246,0.332 0,0 6.232,0.879 8.361,0.276 0.153,-0.051 0.246,-0.206 0.211,-0.361 -0.047,-0.157 -0.211,-0.247 -0.376,-0.206 -1.993,0.567 -8.095,-0.289 -8.095,-0.289 l -0.012,0 z m 18.714,2.975 c 0.159,0 0.294,-0.132 0.305,-0.291 0,-0.161 -0.123,-0.3 -0.27,-0.3 l -10.659,-0.384 c -0.171,-0.006 -0.3,0.125 -0.306,0.282 0,0.161 0.123,0.297 0.282,0.302 l 10.648,0.391 z m -1.682,2.179 c 0.165,-0.012 0.282,-0.156 0.271,-0.318 -0.012,-0.165 -0.164,-0.273 -0.318,-0.267 0,0 -6.538,0.608 -8.513,-0.692 -0.135,-0.09 -0.318,-0.052 -0.406,0.078 -0.099,0.134 -0.052,0.32 0.088,0.405 2.135,1.42 8.866,0.794 8.866,0.794 l 0.012,0 z m -3.204,3.337 c 0.147,0.047 0.312,-0.045 0.37,-0.206 0.048,-0.151 -0.041,-0.315 -0.187,-0.363 -0.036,-0.011 -10.572,-3.333 -11.901,-4.761 -0.099,-0.116 -0.294,-0.121 -0.411,-0.006 -0.118,0.102 -0.13,0.294 -0.012,0.408 1.423,1.538 12.106,4.906 12.141,4.928 m 0.958,-1.867 c -0.059,0.144 0.036,0.311 0.188,0.361 0.148,0.053 0.324,-0.032 0.371,-0.193 l 3.534,-10.893 c 0.058,-0.167 -0.024,-0.323 -0.177,-0.373 -0.164,-0.047 -0.323,0.044 -0.37,0.194 l -3.546,10.904 z m -0.929,1.31 c -0.029,0.159 0.083,0.31 0.247,0.321 0.165,0.03 0.312,-0.079 0.341,-0.247 0,-0.029 1.458,-11.115 3.552,-12.764 0.123,-0.109 0.135,-0.288 0.035,-0.414 -0.082,-0.127 -0.282,-0.145 -0.4,-0.044 -2.276,1.807 -3.769,13.119 -3.775,13.148 m -2.069,1.171 c -0.012,0.161 0.105,0.3 0.265,0.317 0.158,0.018 0.305,-0.103 0.317,-0.264 0.288,-2.685 0.699,-4.968 1.358,-7.22 0.653,-2.246 1.529,-4.46 2.74,-7.021 0.071,-0.143 0,-0.317 -0.135,-0.384 -0.148,-0.072 -0.323,-0.007 -0.395,0.137 -1.222,2.584 -2.11,4.825 -2.774,7.112 -0.659,2.275 -1.088,4.6 -1.376,7.323 m -1.929,-0.383 c -0.052,0.165 0.047,0.321 0.2,0.362 0.164,0.044 0.324,-0.052 0.365,-0.203 l 3.663,-13.311 c 0.041,-0.153 -0.053,-0.315 -0.206,-0.35 -0.153,-0.05 -0.318,0.041 -0.365,0.203 l -3.657,13.299 z m -1.028,-0.908 c -0.048,0.15 0.041,0.32 0.182,0.362 0.176,0.047 0.335,-0.042 0.371,-0.206 l 3.321,-11.01 c 0.047,-0.149 -0.035,-0.314 -0.189,-0.355 -0.158,-0.053 -0.317,0.041 -0.364,0.2 l -3.321,11.009 z m -9.613,-9.216 c -0.059,0.145 0.023,0.312 0.176,0.361 0.153,0.059 0.329,-0.026 0.371,-0.175 0.017,-0.03 3.503,-9.957 5.532,-10.498 0.153,-0.045 0.241,-0.206 0.2,-0.356 -0.035,-0.15 -0.2,-0.247 -0.353,-0.218 -2.335,0.632 -5.915,10.845 -5.926,10.886 m 0.928,1.897 c -0.076,0.143 -0.011,0.32 0.13,0.39 0.129,0.074 0.323,0.018 0.388,-0.121 l 6.338,-12.099 c 0.076,-0.145 0.017,-0.327 -0.123,-0.397 -0.136,-0.068 -0.318,-0.015 -0.395,0.123 l -6.338,12.104 z m 2.964,4.836 c -0.048,0.155 0.035,0.316 0.188,0.358 0.153,0.05 0.323,-0.042 0.365,-0.186 0.012,-0.044 4.415,-13.987 6.597,-14.971 0.152,-0.074 0.222,-0.247 0.152,-0.401 -0.07,-0.149 -0.235,-0.203 -0.388,-0.143 -2.417,1.108 -6.902,15.298 -6.914,15.343 m -1.705,-2.08 c -0.071,0.157 0,0.327 0.147,0.386 0.147,0.053 0.317,-0.012 0.381,-0.15 0.025,-0.044 5.651,-13.735 6.622,-13.844 0.152,-0.012 0.276,-0.155 0.252,-0.316 -0.011,-0.157 -0.147,-0.284 -0.312,-0.26 -1.328,0.139 -7.078,14.149 -7.09,14.184 m 3.08,3.902 c -0.047,0.156 0.041,0.326 0.189,0.361 0.165,0.047 0.329,-0.035 0.37,-0.199 0.012,-0.042 4.315,-14.57 6.497,-15.901 0.153,-0.083 0.188,-0.265 0.099,-0.404 -0.07,-0.132 -0.257,-0.178 -0.393,-0.096 -2.393,1.452 -6.75,16.198 -6.762,16.239 m 16.722,62.848 c 0.171,0.041 0.329,-0.017 0.376,-0.108 0.023,-0.089 -0.082,-0.191 -0.253,-0.235 -0.176,-0.035 -0.347,0.011 -0.382,0.108 -0.029,0.086 0.07,0.206 0.259,0.235 m -0.436,0.562 c 0.236,0.047 0.471,-0.012 0.506,-0.146 0.053,-0.133 -0.099,-0.272 -0.329,-0.313 -0.224,-0.047 -0.447,0.018 -0.494,0.145 -0.047,0.12 0.106,0.264 0.317,0.314 m -0.17,0.691 c 0.242,-0.005 0.441,-0.132 0.453,-0.259 0.023,-0.138 -0.159,-0.241 -0.4,-0.229 -0.223,0.012 -0.434,0.126 -0.447,0.258 -0.012,0.139 0.165,0.242 0.394,0.23 m -0.247,0.947 c 0.271,-0.021 0.518,-0.154 0.524,-0.309 0.017,-0.156 -0.195,-0.276 -0.459,-0.27 -0.282,0.017 -0.512,0.149 -0.541,0.311 -0.012,0.158 0.206,0.274 0.476,0.268 m 0.183,1.36 c 0.335,-0.17 0.54,-0.464 0.481,-0.67 -0.07,-0.199 -0.393,-0.229 -0.728,-0.058 -0.329,0.156 -0.553,0.46 -0.471,0.667 0.059,0.197 0.388,0.229 0.718,0.061 m 3.245,-2.163 c 0,0 0.717,0.47 1.528,0.676 0.642,0.174 1.458,0.156 1.694,-0.147 0.4,-0.511 0.071,-1.522 -1.164,-1.661 -1.441,-0.162 -2.675,-0.162 -2.675,-0.162 l -0.911,-0.132 c 0,0 -1.112,0.597 -1.065,2.695 0.141,0.248 0.324,0.518 0.806,-0.131 0.417,-0.571 1.022,-1.27 1.787,-1.138 m -12.658,1.294 c -0.171,0.031 -0.282,0.146 -0.241,0.234 0.035,0.098 0.2,0.154 0.376,0.11 0.176,-0.047 0.282,-0.151 0.247,-0.242 -0.035,-0.102 -0.206,-0.144 -0.382,-0.102 m -0.418,-0.553 c -0.224,0.041 -0.376,0.194 -0.323,0.315 0.041,0.126 0.258,0.19 0.5,0.137 0.223,-0.055 0.376,-0.194 0.329,-0.32 -0.047,-0.132 -0.282,-0.186 -0.506,-0.132 m -0.17,-0.691 c -0.235,-0.009 -0.412,0.088 -0.4,0.226 0.011,0.141 0.217,0.247 0.447,0.253 0.235,0.012 0.417,-0.089 0.393,-0.22 -0.011,-0.138 -0.211,-0.253 -0.44,-0.259 m -0.253,-0.941 c -0.27,-0.017 -0.488,0.115 -0.476,0.271 0.023,0.149 0.258,0.291 0.535,0.303 0.276,0.005 0.476,-0.116 0.464,-0.277 -0.024,-0.159 -0.252,-0.285 -0.523,-0.297 m 0.176,-1.379 c -0.323,-0.149 -0.652,-0.12 -0.717,0.085 -0.07,0.204 0.152,0.5 0.481,0.657 0.331,0.172 0.654,0.126 0.707,-0.066 0.082,-0.212 -0.136,-0.499 -0.471,-0.676 m 3.246,2.132 c -0.765,0.138 -1.358,-0.547 -1.788,-1.115 -0.482,-0.638 -0.658,-0.373 -0.799,-0.12 -0.041,2.102 1.058,2.686 1.058,2.686 l 0.918,-0.155 c 0,0 1.24,-0.009 2.68,-0.182 1.223,-0.167 1.552,-1.188 1.164,-1.694 -0.247,-0.3 -1.058,-0.3 -1.705,-0.117 -0.817,0.215 -1.528,0.697 -1.528,0.697 m -12.882,-0.656 c 0.176,0.035 0.347,-0.018 0.382,-0.114 0.023,-0.085 -0.088,-0.206 -0.259,-0.236 -0.171,-0.035 -0.335,0.018 -0.376,0.109 -0.035,0.097 0.082,0.206 0.253,0.241 m -0.418,0.553 c 0.235,0.05 0.453,-0.012 0.494,-0.139 0.047,-0.132 -0.088,-0.269 -0.311,-0.316 -0.241,-0.045 -0.465,0.017 -0.506,0.143 -0.047,0.126 0.1,0.271 0.323,0.312 m -0.177,0.693 c 0.236,-0.006 0.436,-0.126 0.448,-0.252 0.023,-0.139 -0.16,-0.235 -0.388,-0.235 -0.241,0.012 -0.441,0.137 -0.453,0.264 -0.012,0.138 0.165,0.235 0.393,0.223 m -0.246,0.944 c 0.265,-0.011 0.505,-0.15 0.517,-0.305 0.023,-0.156 -0.188,-0.271 -0.464,-0.259 -0.27,0.018 -0.512,0.149 -0.523,0.306 -0.012,0.156 0.188,0.279 0.47,0.258 m 0.176,1.367 c 0.341,-0.161 0.541,-0.464 0.482,-0.661 -0.07,-0.207 -0.393,-0.236 -0.717,-0.068 -0.335,0.165 -0.553,0.465 -0.482,0.67 0.071,0.197 0.388,0.23 0.717,0.059 m 3.246,-2.166 c 0,0 0.705,0.47 1.528,0.679 0.653,0.164 1.458,0.159 1.7,-0.15 0.387,-0.506 0.064,-1.529 -1.17,-1.667 -1.441,-0.161 -2.664,-0.161 -2.664,-0.161 l -0.929,-0.127 c 0,0 -1.094,0.594 -1.058,2.695 0.135,0.253 0.324,0.512 0.811,-0.132 0.424,-0.576 1.018,-1.258 1.782,-1.137 m 19.59,6.273 1,-0.133 0.399,-0.205 0.294,-0.203 0.395,-0.259 -2.088,0.8 z m -26.104,-1.522 11.323,-0.465 c 0,0 1.434,-0.012 0.182,0.861 -1.252,0.873 -1.623,3.469 -0.958,3.457 0.67,0 1.823,0.083 3.257,-2.511 1.446,-2.595 2.694,-1.361 3.463,-1.463 0.759,-0.103 17.263,-0.403 17.263,-0.403 l 0.664,-8.069 -15.527,-0.077 c 0,0 -2.694,0.305 -4.322,-1.7 -1.629,-2.01 -3.069,-3.436 -3.164,-1.716 -0.105,1.728 0.189,2.784 0.189,2.784 l -1.629,0.017 -10.848,0.265 0.107,9.02 z m 13.333,2.499 c -1.404,-0.363 -1.728,-0.759 -2.592,-0.569 l -0.859,0.206 -1.063,0.392 -1.541,1.166 -0.282,1.344 1.146,0.943 1.341,-1.54 -0.088,1.158 -0.095,0.95 1.047,0.862 0.777,-0.965 0.381,-1.438 0.195,0.571 0,1.728 c 0,0 -0.095,0.573 0.576,0.662 0.664,0.097 0.864,-2.593 0.864,-2.593 l 1.34,2.005 1.347,-0.878 -2.494,-4.004 z m 14.276,-0.189 -0.805,-0.855 0.805,0.855 z m -0.705,0.408 -1.024,-0.961 1.024,0.961 z m -0.576,0.636 -0.224,-1.832 c 0,0 -0.888,0.806 -1.129,1.079 -0.235,0.259 0.265,0.391 0.265,0.391 0,0 0.506,-0.506 1,-0.403 0.493,0.094 0.088,0.765 0.088,0.765 m 0,0.226 0.675,-0.771 0.654,-0.601 0.399,-0.495 0.306,-0.461 0.1,-0.236 -0.042,-0.308 -0.952,-0.082 -1.17,0.076 -0.723,0.4 -0.894,0.535 -0.564,0.938 c 0,0 0.07,0.981 0.359,1.211 0.3,0.235 1.605,0.585 1.852,-0.206 m -26.058,-20.614 0.705,-0.896 -0.705,0.896 z m -0.529,-0.925 0.564,-0.568 -0.564,0.568 z m 0.811,1.352 c 0,0 0.188,-0.535 0.694,-0.427 0.494,0.085 0.846,0.024 0.282,-0.397 -0.553,-0.435 -1.347,-1.523 -2.963,-2.078 l 1.987,2.902 z m -2.304,-3.252 2.492,3.526 c 0,0 2.405,1.389 2.135,-0.809 -0.289,-2.19 -4.627,-2.717 -4.627,-2.717 m 63.609,-13.37 c 3.81,-3.83 6.156,-9.089 6.156,-14.878 0,-5.791 -2.346,-11.021 -6.156,-14.799 -3.786,-3.768 -9.036,-6.073 -14.821,-6.044 -5.798,0.038 -11.048,2.432 -14.853,6.25 -3.798,3.831 -6.143,9.093 -6.143,14.884 0,5.791 2.345,11.019 6.143,14.799 3.805,3.769 9.055,6.079 14.853,6.038 5.785,-0.035 11.035,-2.422 14.821,-6.25 m -14.821,6.838 c 5.949,-0.041 11.34,-2.499 15.239,-6.423 3.904,-3.931 6.326,-9.337 6.326,-15.299 0,-5.953 -2.422,-11.33 -6.326,-15.201 -3.899,-3.89 -9.29,-6.262 -15.239,-6.221 -5.962,0.044 -11.36,2.499 -15.258,6.426 -3.91,3.937 -6.326,9.343 -6.326,15.299 0,5.953 2.416,11.33 6.326,15.213 3.898,3.878 9.296,6.244 15.258,6.206 m -38.441,44.958 c 0.777,-0.145 1.787,-0.332 2.875,-0.535 l -0.058,-0.741 -0.288,-3.554 -0.195,-3.834 -0.476,-7.961 -0.141,-2.616 1.035,-4.927 -1.465,-3.58 0.465,-1.164 0,-2.3 0.106,-2.299 0.194,-3.457 -0.358,-8.825 -2.617,0.018 0.088,4.792 0,2.595 -0.099,3.264 c 0,0 -0.089,2.017 -0.195,3.069 -0.023,0.362 0.059,2.09 0.195,4.198 l -7.109,1.269 0.188,6.854 7.596,1.304 0,2.678 -0.194,4.131 0,4.227 c 0,0.476 -0.182,3.642 -0.182,3.642 l 0.635,3.752 z m 4.857,-0.896 c 0.993,-0.189 1.975,-0.363 2.857,-0.518 l 0,-0.194 -0.2,-3.74 c 0,0 -0.094,-1.047 -0.188,-1.816 -0.094,-0.771 0,-1.826 0,-2.303 0,-0.478 -0.094,-1.73 -0.094,-1.73 0,0 0.094,-3.928 0.094,-4.602 0,-0.667 -0.094,-2.781 -0.094,-2.781 l 0.858,-3.463 3.116,0.362 1.318,-2.298 0.358,-1.464 -4.792,-0.433 0,-2.499 0,-5.949 0.477,-6.63 -0.582,-4.497 -0.082,-0.383 -1.694,0.006 -0.8,0.203 -0.2,4.792 0,5.576 -0.088,6.332 -1.734,2.103 -0.5,4.63 1.851,2.86 0,3.545 0,3.457 0.189,2.967 -0.189,4.515 0,2.493 0.119,1.459 z m 4.292,-0.759 c 0.67,-0.115 1.205,-0.195 1.534,-0.236 l 0,-1.458 0,-2.304 -0.147,-1.529 2.422,-1.958 -0.129,-0.156 -2.304,1.885 -0.036,-0.259 0.17,-5.785 3.246,-2.315 -0.112,-0.155 -3.122,2.229 0.012,-0.407 0.288,-4.217 2.423,-5.659 -2.046,-4.326 0.487,-3.738 0,-12.197 -0.053,-1.62 -1.493,0.006 0,0.194 0,3.739 0,2.684 -0.093,4.04 -0.189,4.215 -0.282,2.592 -0.189,2.494 c 0,0 3.658,0.453 3.64,1.446 -0.029,1.276 -3.745,3.183 -3.745,3.451 0,0.479 -0.189,2.972 -0.189,2.972 l 0,3.654 -0.093,3.837 0,3.739 0,5.142 z m -10.654,1.943 c 0,0 11.512,-2.19 12.476,-2.202 0.959,-0.006 -0.188,-4.033 1.047,-5.191 1.258,-1.15 2.892,-1.368 2.692,-2.415 -0.187,-1.051 -1.434,-2.195 -2.974,-0.849 -0.1,0.241 0.099,-1.822 0.099,-1.822 0,0 0.57,-1.567 2.106,-1.923 1.546,-0.365 1.793,-2.798 0.84,-2.786 -1.058,-0.386 -2.946,0.873 -2.946,0.873 l 0.259,-2.903 0.253,-2.716 1.693,-2.472 -1.281,-2.084 0.234,-2.402 c 0,0 0.283,-3.93 1.335,-4.619 1.059,-0.673 2.969,-1.746 1.341,-3.556 -0.476,-0.664 -2.299,0.787 -2.299,0.787 l 0,-9.88 -16.122,0.108 0,10.175 c 0,0 -2.505,-1.62 -2.787,0.012 -0.281,1.638 2.787,4.204 2.787,4.204 l 0.2,3.935 -5.056,1.442 0.182,6.217 5.286,0.694 0.258,5.171 c 0,0 0.477,2.011 -1.063,0.776 -1.529,-1.235 -3.264,0.403 -2.018,1.929 1.259,1.534 2.694,2.672 2.976,5.644 0.288,2.969 0.482,5.853 0.482,5.853 m 19.185,-36.694 c 0.429,0 0.776,-0.35 0.776,-0.78 0,-0.414 -0.347,-0.757 -0.776,-0.757 -0.418,0.005 -0.765,0.355 -0.765,0.779 0,0.42 0.347,0.764 0.765,0.758 m 0,1.064 c 1.011,-0.017 1.828,-0.838 1.828,-1.844 0,-1.004 -0.817,-1.816 -1.828,-1.804 -1,0 -1.817,0.826 -1.817,1.826 0,1.017 0.817,1.822 1.817,1.822 m -0.947,25.708 c 0.418,0 0.764,-0.338 0.764,-0.77 0,-0.42 -0.346,-0.764 -0.764,-0.758 -0.435,0 -0.764,0.349 -0.764,0.769 0,0.421 0.329,0.759 0.764,0.759 m 0,1.059 c 1,-0.013 1.811,-0.823 1.811,-1.835 0,-1.005 -0.811,-1.819 -1.811,-1.811 -1.011,0.012 -1.823,0.829 -1.823,1.834 0,1.006 0.812,1.821 1.823,1.812 m -23.606,-5.016 c 0.423,-0.006 0.758,-0.347 0.758,-0.776 0,-0.426 -0.335,-0.758 -0.758,-0.758 -0.43,0 -0.77,0.344 -0.77,0.764 0,0.423 0.34,0.77 0.77,0.77 m 0,1.056 c 0.999,-0.006 1.817,-0.832 1.817,-1.838 0,-0.999 -0.818,-1.816 -1.817,-1.811 -1.012,0.012 -1.829,0.83 -1.829,1.834 0,1.012 0.817,1.821 1.829,1.815 m 62.975,-36.456 c 4.515,-4.551 7.314,-10.813 7.314,-17.712 0,-6.894 -2.799,-13.126 -7.314,-17.604 -4.527,-4.498 -10.759,-7.249 -17.661,-7.202 -6.904,0.05 -13.148,2.884 -17.662,7.449 -4.528,4.545 -7.327,10.807 -7.327,17.712 0,6.889 2.799,13.118 7.327,17.598 4.514,4.498 10.758,7.249 17.662,7.202 6.902,-0.05 13.134,-2.89 17.661,-7.443 m -17.661,8.025 c 7.043,-0.041 13.452,-2.948 18.067,-7.608 4.639,-4.662 7.49,-11.073 7.49,-18.135 0,-7.05 -2.851,-13.426 -7.49,-18.02 -4.615,-4.592 -11.024,-7.412 -18.067,-7.362 -7.068,0.047 -13.465,2.948 -18.086,7.609 -4.621,4.665 -7.485,11.074 -7.485,18.134 0,7.05 2.864,13.432 7.485,18.028 4.621,4.591 11.018,7.41 18.086,7.354 m 0,-46.845 c -11.724,0.086 -21.285,9.716 -21.285,21.428 0,11.727 9.561,21.217 21.285,21.131 11.712,-0.076 21.271,-9.704 21.271,-21.428 0,-11.715 -9.559,-21.216 -21.271,-21.131 m -67.709,106.01 135.84,-0.952 0,-29.862 0,-118.857 0,-12.299 c 0,-4.831 -4.516,-8.749 -10.054,-8.713 -16.533,0.114 -33.078,0.228 -49.6,0.343 -4.798,0.211 -6.561,-3.325 -8.549,-5.074 -2.104,2.052 -3.157,5.268 -7.831,5.189 l -49.746,0.349 c -5.539,0.042 -10.06,4.017 -10.06,8.849 l 0,12.295 0,118.871 0,29.861 z m 69.625,-6.399 59.877,-0.421 0,-73.717 -36.953,0.259 C -8.92,79.446 -18.279,88.086 -29.78,89.03 l 0,53.145 z m -63.275,0.432 58.142,-0.403 0,-53.265 C -45.831,87.634 -54.568,79.344 -56.556,68.641 l -36.499,0.257 0,73.709 z m 0,-80.026 36.135,-0.247 c 0.8,-12.105 10.125,-21.941 22.007,-23.538 l 0,-30.653 -0.259,-26.555 c -0.217,1.035 -2.21,2.861 -5.45,2.793 l -42.579,0.294 c -5.421,0.032 -9.854,3.572 -9.854,7.852 l 0,16.028 0,22.429 0,31.597 z m 123.152,-1.402 0,-31.603 0,-22.432 0,-16.019 c 0,-4.289 -4.534,-7.761 -10.083,-7.726 l -43.503,0.309 c -3.316,0.111 -5.356,-1.676 -5.574,-2.717 l -0.258,26.564 0,31.115 c 12.099,1.046 21.718,10.65 22.789,22.756 l 36.629,-0.247 z m -166.789,83.932 -3.681,-3.774 c 1.011,-0.747 3.897,-3.472 1.199,-6.982 l -0.2,0.356 c 2.775,3.621 -1.599,6.332 -1.599,6.332 l -0.317,0.2 0.259,0.253 3.786,3.895 c -6.139,2.763 -10.737,-2.916 -10.748,-2.94 l -0.447,0.379 c 0.012,0.024 7.738,9.561 16.657,-1.149 l -0.453,-0.379 c -1.535,1.854 -3.028,3.063 -4.456,3.809 m 212.631,-2.539 c -1.417,-0.735 -2.922,-1.92 -4.463,-3.752 l -0.435,0.386 c 5.574,6.623 10.672,5.329 13.735,3.434 0.141,0.431 0.47,-0.056 1.2,-1.62 -1.776,1.51 -5.263,3.66 -9.484,1.816 l 3.792,-3.936 0.259,-0.258 -0.306,-0.201 c -0.023,0 -4.398,-2.648 -1.611,-6.302 l -0.117,-0.006 c -2.705,3.545 0.093,5.877 1.117,6.611 l -3.687,3.828 z m -192.524,22.006 0,-23.955 0,-150.439 c 0,-13.111 4.821,-24.461 20.555,-27.38 l 54.244,-0.374 c 5.833,0.086 7.137,-3.993 9.76,-6.594 2.504,2.228 4.727,6.703 10.724,6.444 20.66,-0.138 33.76,-0.235 54.445,-0.38 7.155,0.704 12.099,6.557 16.726,12.107 2.487,2.993 3.775,10.586 3.751,18.785 l -0.311,146.644 0,23.966 -169.894,1.176 z m -5.985,8.103 c -1.776,0.011 -3.405,-0.644 -4.645,-1.758 l -0.082,0.085 -0.506,-0.699 c -0.282,-0.301 -0.517,-0.639 -0.735,-0.995 l -19.091,-25.966 c -3.551,-4.833 4.774,-12.312 8.296,-8.831 l 7.097,7.003 c 0,0 2.387,-0.086 2.129,-10.657 -0.271,-10.575 0,-35.268 0,-35.268 l 0,-5.162 4.761,-5.515 0,-97.858 c 0,-13.92 7.315,-29.451 24.648,-32.564 l 59.741,-0.412 c -0.288,-7.229 7.661,-12.553 10.554,-15.322 2.752,2.367 9.125,12.277 12.005,15.166 0.894,-0.012 1.758,-0.012 2.611,-0.012 20.884,-0.149 29.979,-0.211 51.869,-0.367 7.891,0.741 16.833,10.398 21.931,16.292 2.727,3.173 4.15,11.227 4.138,19.934 l -0.229,92.929 0.924,0.356 5.244,6.008 0,5.148 c 0,0 0.276,24.696 0,35.268 -0.271,10.578 2.135,10.624 2.135,10.624 l 7.084,-7.102 c 3.528,-3.522 11.865,3.839 8.314,8.717 l -19.097,26.246 c -0.223,0.352 -0.459,0.69 -0.741,1.005 l -0.506,0.696 -0.094,-0.082 c -1.234,1.117 -2.857,1.81 -4.632,1.822 -3.881,0.024 -7.033,-3.183 -7.033,-7.164 l 0,-0.85 -169.058,1.176 0,0.848 c 0,3.98 -3.152,7.237 -7.032,7.261 m 36.729,-1.202 0.271,-0.521 c 0.023,0.006 7.696,3.998 8.389,12.806 0.171,2.066 -0.212,3.783 -0.911,5.197 -0.876,1.758 -2.246,3.021 -3.716,3.889 -1.464,0.855 -3.028,1.305 -4.28,1.414 -0.864,0.08 -1.605,-0.018 -2.075,-0.246 l 0.253,-0.53 c 0.382,0.194 1.011,0.253 1.775,0.199 1.182,-0.108 2.652,-0.531 4.039,-1.342 1.376,-0.809 2.669,-2.005 3.487,-3.643 0.652,-1.319 1.011,-2.933 0.852,-4.889 -0.67,-8.484 -8.066,-12.323 -8.084,-12.334 m -7.326,8.583 -0.182,-0.561 c 0.03,-0.006 6.473,-2.141 9.501,3.56 l 4.657,-5.082 0.435,0.393 -4.951,5.392 -0.294,0.32 -0.188,-0.391 c -2.71,-5.714 -8.966,-3.631 -8.978,-3.631 m 127.25,-1.396 -0.353,0.471 c -0.023,-0.012 -6.203,-4.836 -12.217,4.947 l -0.165,0.27 -0.258,-0.185 c -2.164,-1.614 -5.286,-2.945 -5.304,-2.957 l 0.241,-0.535 c 0,0 2.951,1.269 5.168,2.834 1.082,-1.714 2.163,-2.984 3.234,-3.913 5.121,-4.459 9.631,-0.944 9.654,-0.932 m -7.767,13.863 0.065,0.586 c 0,0 -10.466,1.337 -11.177,-12.289 l 0,-0.029 0,-0.024 c 1.394,-7.586 7.566,-10.562 7.584,-10.568 l 0.259,0.512 c -0.024,0.014 -5.897,2.86 -7.261,10.109 0.693,12.974 10.501,11.703 10.501,11.703 l 0.029,0 z m -123.123,-28.086 11.007,6.451 -6.726,8.433 c -6.044,4.677 -2.222,15.925 8.684,14.702 1.347,-0.156 4.486,-1.576 5.82,-2.076 10.248,-3.865 24.407,-10.415 43.65,-12.475 19.25,-2.058 55.038,13.354 55.038,13.354 0,0 6.291,1.759 10.442,-2.631 1.517,-1.584 3.08,-3.745 3.493,-7.405 0.487,-4.336 -2.211,-5.817 -2.211,-5.817 l -9.596,-6.515 10.878,-6.929 -130.479,0.908 z" /></g><g
           transform="translate(53.5509,61.443)"
           id="g24"><path
             id="path26"
             style="fill:#48474f;fill-opacity:1;fill-rule:evenodd;stroke:none"
             d="m 0,0 10.46,-13.005 c 0.806,4.539 14.182,8.398 14.217,8.404 l 0.164,-0.561 c -0.035,-0.012 -14.116,-4.08 -13.823,-8.399 0.006,-0.053 0.006,-0.106 0.018,-0.168 l 0.23,-0.276 -0.101,-0.079 c 0.059,-0.101 0.118,-0.197 0.2,-0.276 0.553,-0.536 1.67,-0.742 3.081,-0.692 1.458,0.054 3.245,0.374 5.063,0.885 4.298,1.174 8.471,3.167 9.518,4.901 l 0.576,-0.526 c -1.117,-1.852 -5.52,-3.731 -9.936,-4.941 -1.852,-0.518 -3.681,-0.85 -5.197,-0.903 -1.577,-0.054 -2.834,0.194 -3.516,0.862 -0.218,0.219 -0.383,0.481 -0.465,0.792 L -0.458,-0.361 0,0 Z m 102.851,19.826 1.586,-15.763 c 1.294,0.332 5.962,1.432 8.808,0.546 l -0.171,-0.557 c -3.163,0.981 -8.802,-0.639 -8.813,-0.651 l -0.341,-0.096 -0.035,0.355 -1.694,16.116 0.66,0.05 z M 84.753,19.44 82.983,3.631 82.942,3.316 82.625,3.384 c -0.012,0 -4.763,1.011 -8.091,0.817 l -0.041,0.585 c 2.887,0.168 6.809,-0.556 7.932,-0.77 l 1.74,15.489 0.588,-0.065 z m 77.726,-23.656 c -0.158,0.054 -0.246,0.212 -0.199,0.357 0.041,0.149 -0.305,0.384 -0.141,0.34 0.035,-0.011 14.516,-4.254 15.433,-8.819 l 8.426,12.914 c 0.07,0.127 0.259,0.168 0.388,0.085 0.141,-0.085 0.176,-0.258 0.093,-0.396 l -8.93,-13.706 c -0.018,-0.023 -0.041,-0.046 -0.053,-0.064 -0.088,-0.247 -0.235,-0.465 -0.423,-0.644 -0.688,-0.67 -1.952,-0.928 -3.505,-0.868 -1.51,0.06 -3.303,0.404 -5.115,0.909 -4.133,1.176 -8.09,2.999 -9.189,4.831 -0.077,0.131 -0.03,0.305 0.112,0.384 0.141,0.077 0.317,0.03 0.399,-0.108 1.011,-1.705 4.827,-3.419 8.837,-4.56 1.77,-0.505 3.522,-0.829 4.968,-0.876 1.399,-0.062 2.511,0.144 3.063,0.685 0.23,0.224 0.359,0.5 0.382,0.861 0.3,4.316 -14.516,8.658 -14.546,8.675 M 71.018,17.171 c 0,1.455 0.23,2.552 0.682,3.275 0.459,0.72 1.059,1.088 1.812,1.076 0.734,-0.005 1.34,-0.374 1.781,-1.096 0.452,-0.715 0.676,-1.8 0.676,-3.255 0,-1.482 -0.23,-2.584 -0.688,-3.319 -0.471,-0.741 -1.064,-1.096 -1.769,-1.096 -0.73,0.006 -1.318,0.385 -1.794,1.126 -0.458,0.746 -0.7,1.848 -0.7,3.289 m -1.858,-0.079 0,0 c 0,1.294 0.13,2.384 0.4,3.268 0.201,0.639 0.495,1.224 0.847,1.729 0.341,0.506 0.729,0.886 1.153,1.133 0.552,0.335 1.199,0.499 1.922,0.493 1.323,-0.006 2.37,-0.591 3.181,-1.764 0.775,-1.17 1.176,-2.79 1.176,-4.859 0,-2.055 -0.401,-3.655 -1.176,-4.819 -0.776,-1.149 -1.847,-1.719 -3.151,-1.708 -1.341,0.006 -2.388,0.591 -3.175,1.758 -0.794,1.156 -1.177,2.746 -1.177,4.769 m -8.031,-6.417 0,0 -0.676,12.714 6.626,0.294 0.118,-2.149 -4.821,-0.224 0.152,-2.816 4.492,0.206 0.118,-2.138 -4.486,-0.2 0.17,-3.463 5.01,0.224 0.117,-2.143 -6.82,-0.305 z m -5.497,-0.586 -1.135,10.531 -2.634,-0.26 -0.235,2.15 7.073,0.667 0.235,-2.143 -2.64,-0.253 1.14,-10.518 -1.804,-0.174 z m -6.144,4.131 -2.411,-0.356 0.436,4.848 1.975,-4.492 z m 4.115,-4.498 0,0 -1.952,-0.283 -1.234,2.746 -3.54,-0.517 -0.259,-2.975 -1.892,-0.27 1.387,13.082 1.893,0.275 5.597,-12.058 z m -18.156,-3.298 0,0 -2.939,12.414 2.634,0.57 3.598,-8.128 -0.447,8.817 2.635,0.57 2.951,-12.421 -1.635,-0.353 -2.316,9.784 0.576,-10.16 -1.705,-0.365 -4.033,9.396 2.316,-9.769 -1.635,-0.355 z m -11.735,-4.072 0,0 -4.492,11.977 1.658,0.576 6.432,-6.803 -2.993,7.997 1.576,0.552 L 30.38,4.665 28.675,4.075 22.354,10.716 25.27,2.901 23.712,2.352 Z m -6.079,3.048 0,0 L 15.398,4.448 14.534,9.245 17.633,5.4 Z m 5.144,-3.313 -1.793,-0.77 -1.923,2.349 -3.275,-1.391 0.529,-2.939 -1.746,-0.747 -2.134,13.023 1.741,0.735 8.601,-10.26 z M 5.639,-1.476 7.061,-0.441 c 0.512,-0.697 1.011,-1.137 1.488,-1.326 0.476,-0.191 0.964,-0.162 1.446,0.091 0.506,0.265 0.8,0.62 0.876,1.073 0.083,0.445 0.012,0.868 -0.212,1.282 C 10.513,0.944 10.318,1.138 10.107,1.265 9.895,1.396 9.613,1.455 9.261,1.449 9.025,1.443 8.508,1.373 7.72,1.265 6.697,1.114 5.897,1.161 5.304,1.42 4.475,1.776 3.81,2.395 3.31,3.287 2.993,3.851 2.799,4.442 2.746,5.062 2.687,5.677 2.799,6.218 3.075,6.712 3.357,7.2 3.798,7.597 4.393,7.917 5.392,8.44 6.297,8.531 7.143,8.182 7.99,7.826 8.72,7.146 9.325,6.136 L 7.802,5.194 C 7.402,5.729 7.026,6.067 6.649,6.2 6.297,6.333 5.886,6.279 5.438,6.044 4.986,5.798 4.704,5.477 4.592,5.068 4.527,4.798 4.58,4.527 4.739,4.236 4.886,3.972 5.098,3.792 5.345,3.684 5.685,3.552 6.314,3.563 7.237,3.713 c 0.918,0.15 1.635,0.188 2.164,0.102 0.53,-0.079 1.024,-0.308 1.505,-0.673 0.483,-0.367 0.924,-0.905 1.329,-1.614 0.359,-0.643 0.576,-1.302 0.647,-1.992 0.071,-0.7 -0.053,-1.303 -0.359,-1.814 -0.299,-0.518 -0.788,-0.95 -1.475,-1.311 C 10.06,-4.118 9.107,-4.204 8.22,-3.83 7.32,-3.457 6.468,-2.675 5.639,-1.476 m 171.116,7.359 0,0 c 0.805,1.173 1.635,1.895 2.493,2.178 0.858,0.282 1.646,0.179 2.381,-0.308 0.741,-0.488 1.123,-1.162 1.171,-2.035 0.047,-0.867 -0.342,-1.884 -1.153,-3.045 -0.817,-1.182 -1.67,-1.908 -2.528,-2.199 -0.882,-0.289 -1.658,-0.192 -2.364,0.279 -0.717,0.467 -1.099,1.149 -1.147,2.052 -0.035,0.896 0.336,1.925 1.147,3.078 m -1.899,1.155 c 0.729,1.023 1.464,1.811 2.229,2.328 0.558,0.385 1.152,0.67 1.799,0.856 0.623,0.182 1.222,0.235 1.769,0.156 0.741,-0.098 1.464,-0.386 2.194,-0.861 1.293,-0.86 2.01,-2.018 2.151,-3.461 0.13,-1.447 -0.382,-2.998 -1.54,-4.654 -1.141,-1.643 -2.423,-2.669 -3.852,-3.084 -1.417,-0.408 -2.774,-0.19 -4.068,0.668 -1.311,0.867 -2.04,2.031 -2.176,3.463 -0.135,1.441 0.371,2.969 1.494,4.589 m -5.109,0.461 0,0 1.658,-1.443 c -0.782,-1.137 -1.646,-1.884 -2.581,-2.235 -0.935,-0.338 -1.934,-0.314 -3.011,0.104 -1.317,0.494 -2.199,1.426 -2.639,2.793 -0.43,1.361 -0.294,2.951 0.423,4.756 0.747,1.902 1.763,3.228 3.034,3.968 1.281,0.724 2.61,0.829 4.004,0.3 1.222,-0.464 2.04,-1.252 2.469,-2.372 0.258,-0.661 0.324,-1.499 0.194,-2.505 l -2.217,0.206 c 0.124,0.644 0.065,1.202 -0.17,1.691 -0.235,0.494 -0.623,0.832 -1.164,1.028 -0.729,0.291 -1.452,0.212 -2.152,-0.226 -0.705,-0.435 -1.323,-1.338 -1.858,-2.705 -0.576,-1.455 -0.764,-2.569 -0.552,-3.36 0.211,-0.787 0.669,-1.316 1.399,-1.587 0.523,-0.212 1.058,-0.188 1.61,0.059 0.541,0.241 1.047,0.753 1.553,1.528 m -18.38,0.861 0,0 2.858,11.989 2.029,-0.476 2.346,-8.984 1.911,8.003 1.933,-0.445 -2.845,-11.994 -2.099,0.487 -2.322,8.79 -1.865,-7.819 -1.946,0.449 z m -9.83,1.821 0,0 1.981,12.156 7.802,-1.253 -0.329,-2.061 -5.68,0.911 -0.446,-2.699 5.279,-0.848 -0.317,-2.046 -5.291,0.849 -0.535,-3.307 5.873,-0.95 -0.341,-2.04 -7.996,1.288 z m -6.679,0.896 0,0 1.093,10.175 -3.151,0.349 0.235,2.07 8.42,-0.92 -0.229,-2.069 -3.134,0.34 -1.106,-10.18 -2.128,0.235 z m -6.008,5.574 -2.906,0.17 1.688,4.484 1.218,-4.654 z m 3.692,-5.092 -2.341,0.138 -0.775,2.846 -4.257,0.241 -1.024,-2.736 -2.275,0.132 4.798,12.064 2.275,-0.138 3.599,-12.547 z M 5.991,-24.282 c 0,0 28.316,8.699 25.364,12.162 -2.951,3.463 -7.085,7.508 -7.085,7.508 0,0 17.281,8.778 50.023,9.119 -0.047,-0.123 -0.606,-4.61 -0.047,-8.211 2.123,-4.221 11.636,-4.201 20.49,-3.734 9.425,0.495 18.151,1.65 18.003,3.975 -0.294,4.595 0.047,7.699 0.047,7.699 0,0 43.967,-3.172 46.331,-3.757 2.352,-0.593 5.009,-1.757 2.352,-6.332 -2.658,-4.562 -6.497,-6.267 -0.888,-9.175 5.614,-2.907 14.457,-4.401 14.457,-4.401 0,0 6.197,-0.911 6.197,-3.486 0,-2.584 2.07,-11.206 10.325,-4.09 8.266,7.117 10.341,20.876 10.341,20.876 l -15.644,6.705 c 0,0 7.379,11.709 -5.022,16.102 -12.387,4.385 -23.894,12.794 -76.998,11.147 -3.175,0.62 -1.775,-8.019 -1.775,-8.019 L 84.459,19.643 C 85.5,27.416 84.3,28.398 79.015,28.472 42.139,29.036 13.646,21.619 -1.688,10.486 -3.169,5.912 -0.212,-0.138 -0.212,-0.138 c 0,0 -17.715,-8.196 -16.526,-11.08 1.181,-2.878 10.03,-20.723 13.863,-20.746 3.84,-0.029 10.336,-2.663 8.866,7.682" /></g></g></g></g></svg>