<?xml version="1.0" encoding="UTF-8" standalone="no"?>
<svg
   xmlns:dc="http://purl.org/dc/elements/1.1/"
   xmlns:cc="http://creativecommons.org/ns#"
   xmlns:rdf="http://www.w3.org/1999/02/22-rdf-syntax-ns#"
   xmlns:svg="http://www.w3.org/2000/svg"
   xmlns="http://www.w3.org/2000/svg"
   viewBox="0 0 817.15997 455"
   height="455"
   width="817.15997"
   xml:space="preserve"
   version="1.1"
   id="svg2"><metadata
     id="metadata8"><rdf:RDF><cc:Work
         rdf:about=""><dc:format>image/svg+xml</dc:format><dc:type
           rdf:resource="http://purl.org/dc/dcmitype/StillImage" /></cc:Work></rdf:RDF></metadata><defs
     id="defs6"><clipPath
       id="clipPath16"
       clipPathUnits="userSpaceOnUse"><path
         id="path18"
         d="m 0,364 653.728,0 0,-364 L 0,0 0,364 Z" /></clipPath></defs><g
     transform="matrix(1.25,0,0,-1.25,0,455)"
     id="g10"><g
       id="g12"><g
         clip-path="url(#clipPath16)"
         id="g14"><g
           transform="translate(364.2905,153.2784)"
           id="g20"><path
             id="path22"
             style="fill:#216844;fill-opacity:1;fill-rule:nonzero;stroke:none"
             d="M 0,0 0.035,0.085 C 0.041,0.075 0.053,0.064 0.052,0.055 0.051,0.022 0.059,-0.024 -0.001,0.001 -0.001,0.001 0,0 0,0" /></g><g
           transform="translate(513.2102,345.4162)"
           id="g24"><path
             id="path26"
             style="fill:#feffff;fill-opacity:1;fill-rule:nonzero;stroke:none"
             d="m 0,0 c 46.378,0 92.755,-0.004 139.133,0.026 1.085,0 1.378,-0.208 1.378,-1.351 -0.032,-110.078 -0.033,-220.157 0.007,-330.236 0.001,-1.278 -0.35,-1.404 -1.482,-1.404 -214.169,0.029 -428.337,0.029 -642.506,-0.002 -1.164,0 -1.466,0.176 -1.465,1.421 0.038,110.03 0.038,220.059 -0.003,330.088 -0.001,1.33 0.365,1.486 1.55,1.485 C -396.675,-0.002 -289.962,0 -183.249,0 c -0.002,-0.082 -0.004,-0.164 -0.005,-0.246 -3.56,-0.223 -6.897,-1.242 -10.021,-2.922 -12.074,-6.495 -22.129,-15.395 -30.684,-26.025 -11.659,-14.487 -20.25,-30.719 -26.989,-47.98 -1.143,-2.927 -2.176,-5.897 -3.3,-8.959 0.622,-0.03 1.011,-0.063 1.401,-0.065 11.531,-0.07 23.061,-0.15 34.591,-0.179 1.054,-0.003 1.378,-0.213 1.099,-1.29 -1.808,-6.982 -3.049,-14.086 -4.535,-21.138 -4.427,-21.014 -8.827,-42.033 -13.232,-63.051 -4.497,-21.453 -8.981,-42.909 -13.48,-64.362 -4.903,-23.386 -9.824,-46.768 -14.701,-70.16 -0.209,-1.006 -0.513,-1.35 -1.593,-1.35 -13.758,-0.005 -27.516,-0.069 -41.274,-0.113 -3.121,-0.01 -3.104,-0.005 -2.421,3.078 0.699,3.163 1.36,6.333 2.038,9.501 -9.471,-10.26 -20.555,-18.214 -32.891,-24.543 1.509,-0.138 2.942,-0.13 4.375,-0.14 6.729,-0.045 13.459,0.125 20.185,-0.191 -4.916,-4.497 -10.532,-8.071 -16.335,-12.157 0.897,0 1.321,0 1.744,-0.001 19.746,-0.031 39.492,-0.081 59.238,-0.088 26.575,-0.009 53.151,-0.003 79.726,0.035 11.529,0.016 23.059,-0.318 34.587,0.012 4.093,0.118 7.796,1.263 11.178,3.747 12.366,9.082 22.36,20.303 30.493,33.247 11.012,17.526 18.822,36.526 25.538,55.999 4.975,14.427 8.167,29.305 10.779,44.331 2.806,16.144 6.341,32.149 9.84,48.156 0.234,1.072 -0.018,1.514 -0.919,1.927 -1.963,0.899 -4.084,1.094 -6.145,1.574 -1.359,0.316 -1.654,-0.167 -1.968,-1.299 -1.601,-5.75 -3.295,-11.475 -4.928,-17.217 -1.456,-5.122 -2.876,-10.254 -4.313,-15.381 -0.093,-0.222 -0.212,-0.436 -0.278,-0.666 -6.027,-20.903 -12.062,-41.804 -18.042,-62.72 -0.323,-1.13 -0.776,-1.415 -1.901,-1.405 -11.333,0.097 -22.667,0.139 -34,0.181 -5.439,0.019 -10.879,0.003 -16.494,0.003 1.334,4.225 2.675,8.239 3.872,12.296 17.353,58.808 34.678,117.625 52.032,176.434 3.28,11.114 6.358,22.29 10.081,33.269 0.665,1.961 1.137,2.32 2.941,2.22 9.929,-0.547 19.882,-0.696 29.784,-1.682 5.459,-0.544 10.94,-0.881 16.374,-1.701 5.181,-0.782 10.254,-2.036 15.321,-3.328 2.354,-0.865 4.727,-1.683 7.053,-2.619 0.906,-0.365 1.449,-0.304 2.149,0.457 3.599,3.911 7.553,7.384 12.44,9.652 0.683,0.317 1.402,0.643 2.001,1.306 -0.957,0.148 -1.78,0.284 -2.605,0.402 -4.153,0.593 -8.306,1.182 -12.459,1.772 0.5,0.865 1.25,1.508 1.956,2.186 4.54,4.363 9.798,7.692 15.337,10.613 C -0.237,-0.565 -0.054,-0.35 0,0" /></g><g
           transform="translate(479.055,215.832)"
           id="g28"><path
             id="path30"
             style="fill:#feffff;fill-opacity:1;fill-rule:nonzero;stroke:none"
             d="m 0,0 c 1.69,0.363 3.177,0.665 4.656,1.003 5.338,1.218 10.437,3 14.879,6.33 4.39,3.29 6.984,7.924 9.2,12.735 5.272,11.453 8.443,23.59 10.98,35.88 1.131,5.482 1.4,11.098 0.227,16.666 -1.847,8.768 -6.923,15.27 -14.259,20.151 -9.814,6.529 -20.798,9.89 -32.29,11.867 -5.761,0.991 -11.598,1.277 -17.4,1.883 -9.457,0.987 -18.967,1.08 -28.448,1.672 -0.765,0.048 -1.014,-0.287 -1.214,-0.922 -0.797,-2.542 -1.692,-5.054 -2.445,-7.609 -19.389,-65.699 -38.763,-131.402 -58.144,-197.103 -1.086,-3.68 -2.218,-7.347 -3.346,-11.077 0.407,-0.019 0.701,-0.045 0.994,-0.045 13.909,-0.029 27.818,-0.038 41.727,-0.114 1.146,-0.006 1.493,0.426 1.775,1.409 6.246,21.827 12.52,43.646 18.791,65.466 2.986,10.388 5.972,20.776 8.974,31.159 0.172,0.595 0.124,1.414 1.248,1.192 2.374,-0.468 4.793,-0.725 7.155,-1.242 4.608,-1.009 8.257,-3.27 9.757,-8.068 0.536,-1.713 0.705,-3.488 0.72,-5.273 0.047,-5.489 -0.978,-10.83 -2.488,-16.066 -6.451,-22.383 -12.954,-44.751 -19.485,-67.111 -0.397,-1.362 -0.162,-1.618 1.232,-1.618 13.265,0 26.53,-0.057 39.795,-0.152 1.137,-0.008 1.597,0.287 1.918,1.414 4.97,17.417 9.973,34.826 15.02,52.221 2.549,8.787 5.02,17.579 5.478,26.793 0.497,10.009 -2.231,18.672 -10.38,25.09 C 3.163,-2.316 1.646,-1.231 0,0" /></g><g
           transform="translate(125.228,41.6797)"
           id="g32"><path
             id="path34"
             style="fill:#feffff;fill-opacity:1;fill-rule:nonzero;stroke:none"
             d="m 0,0 c 0.35,-0.042 0.495,-0.075 0.641,-0.076 13.262,-0.081 26.524,-0.147 39.786,-0.266 0.975,-0.009 1.251,0.444 1.525,1.199 4.945,13.629 9.904,27.252 14.863,40.876 3.07,8.434 6.144,16.866 9.218,25.298 0.269,0.739 0.455,1.389 1.565,1.388 9.848,-0.011 19.696,0.041 29.544,0.112 0.877,0.006 1.108,-0.23 0.941,-1.08 C 97.7,65.514 97.448,63.549 97.029,61.62 93.683,46.183 90.309,30.752 86.946,15.319 85.814,10.123 84.688,4.926 83.55,-0.315 c 0.301,-0.031 0.495,-0.068 0.689,-0.068 12.026,0.038 24.052,0.098 36.077,0.085 1.157,-0.001 1.365,0.517 1.553,1.423 2.484,11.989 4.982,23.974 7.497,35.956 6.196,29.519 12.412,59.034 18.602,88.555 6.058,28.893 12.088,57.791 18.16,86.681 0.221,1.051 0.199,1.401 -1.06,1.404 -29.346,0.075 -58.693,0.192 -88.039,0.345 -1.11,0.006 -1.49,-0.398 -1.826,-1.353 C 53.324,150.465 31.427,88.222 9.515,25.986 6.471,17.341 3.535,8.657 0,0" /></g><g
           transform="translate(49.3051,124.6456)"
           id="g36"><path
             id="path38"
             style="fill:#feffff;fill-opacity:1;fill-rule:nonzero;stroke:none"
             d="m 0,0 c 0,0.021 0,0.042 0,0.063 -6.335,0 -12.67,-0.019 -19.004,0.02 -0.944,0.005 -1.348,-0.24 -1.619,-1.208 -1.45,-5.176 -3.069,-10.306 -4.502,-15.488 -2.603,-9.407 -6.032,-18.604 -7.409,-28.328 -0.726,-5.124 -1.06,-10.32 0.662,-15.281 3.187,-9.176 9.614,-15.226 18.776,-18.362 6.573,-2.25 13.425,-3.226 20.247,-4.343 9.624,-1.576 19.261,-2.205 28.926,-0.424 16.996,3.13 29.064,12.3 34.915,28.869 2.877,8.146 4.803,16.581 7.104,24.899 2.064,7.462 4.461,14.842 5.456,22.573 1.491,11.595 -1.93,21.342 -10.625,29.215 -5.255,4.758 -11.249,8.568 -16.681,13.102 -5.447,4.546 -10.685,9.267 -14.766,15.146 -3.215,4.631 -4.169,9.615 -2.655,15.065 1.993,7.178 3.972,14.359 5.95,21.541 1.244,4.519 2.476,9.042 4.596,13.256 2.985,5.931 8.634,6.411 13.238,4.532 2.839,-1.158 4.435,-3.373 4.583,-6.519 0.143,-3.048 -0.371,-6.023 -1.131,-8.943 -2.61,-10.027 -5.267,-20.041 -7.954,-30.047 -0.267,-0.992 -0.188,-1.271 0.914,-1.269 12.521,0.016 25.042,-0.005 37.563,-0.049 0.877,-0.003 1.287,0.217 1.565,1.109 1.157,3.719 2.461,7.393 3.628,11.11 2.317,7.38 5.302,14.58 5.899,22.421 0.631,8.29 -0.882,15.952 -6.384,22.475 -3.661,4.34 -8.13,7.682 -13.276,10.02 -14.073,6.394 -28.859,8.539 -44.131,6.505 C 26.325,129.321 14.099,119.841 8.035,103.081 4.191,92.456 1.612,81.429 -1.196,70.49 -2.838,64.095 -3.185,57.615 -1.717,51.101 0.056,43.232 4.886,37.413 10.809,32.335 14.49,29.179 18.247,26.114 21.949,22.983 28.157,17.73 34.072,12.198 38.711,5.436 42.187,0.368 43.278,-5.12 41.677,-11.06 c -2.233,-8.289 -4.543,-16.556 -6.828,-24.83 -1.365,-4.942 -2.519,-9.962 -4.899,-14.556 -2.826,-5.454 -7.441,-7.742 -13.486,-6.782 -4.76,0.756 -7.825,4.31 -7.867,9.101 -0.023,2.691 0.406,5.328 1.091,7.91 3.417,12.875 6.865,25.742 10.347,38.6 0.33,1.218 0.347,1.677 -1.179,1.655 C 12.572,-0.053 6.285,0 0,0" /></g><g
           transform="translate(537.9142,128.0203)"
           id="g40"><path
             id="path42"
             style="fill:#feffff;fill-opacity:1;fill-rule:nonzero;stroke:none"
             d="m 0,0 c 0.211,0.632 0.345,1.05 0.489,1.464 8.448,24.223 16.905,48.442 25.317,72.677 0.363,1.048 0.863,1.302 1.897,1.298 9.948,-0.041 19.896,-0.007 29.844,-0.068 1.127,-0.007 1.633,0.341 2.056,1.346 3.405,8.095 6.868,16.166 10.297,24.251 0.183,0.431 0.563,0.841 0.325,1.45 l -1.606,0 c -10.443,0 -20.886,0.027 -31.328,-0.031 -1.386,-0.008 -1.51,0.305 -1.08,1.529 6.358,18.107 12.688,36.225 18.98,54.355 0.389,1.122 0.897,1.473 2.094,1.465 12.718,-0.081 25.437,-0.074 38.156,-0.153 1.161,-0.007 1.6,0.4 1.936,1.44 2.411,7.465 4.883,14.909 7.33,22.363 1.367,4.164 2.721,8.333 4.107,12.577 -0.372,0.027 -0.613,0.059 -0.855,0.06 -26.328,0.105 -52.656,0.199 -78.984,0.344 -1.112,0.006 -1.393,-0.483 -1.698,-1.353 C 1.94,122.709 -23.413,50.409 -48.786,-21.884 c -0.347,-0.99 -0.373,-1.329 0.861,-1.327 27.319,0.054 54.638,0.076 81.958,0.069 0.997,0 1.329,0.367 1.59,1.251 1.358,4.59 2.781,9.16 4.186,13.735 0.823,2.683 1.652,5.363 2.513,8.156 L 0,0 Z" /></g><g
           transform="translate(329.9558,345.1703)"
           id="g44"><path
             id="path46"
             style="fill:#e8ece4;fill-opacity:1;fill-rule:nonzero;stroke:none"
             d="m 0,0 c 0.001,0.082 0.003,0.164 0.005,0.246 l 76.032,0 C 76.038,0.163 76.04,0.08 76.042,-0.002 75.5,-0.02 74.958,-0.054 74.416,-0.054 55.687,-0.056 36.959,-0.06 18.231,-0.053 12.154,-0.051 6.077,-0.019 0,0" /></g><g
           transform="translate(405.998,345.1681)"
           id="g48"><path
             id="path50"
             style="fill:#fdfdfc;fill-opacity:1;fill-rule:nonzero;stroke:none"
             d="m 0,0 c -0.002,0.083 -0.004,0.165 -0.005,0.248 l 68.013,0 C 68.01,0.164 68.006,0.08 67.996,-0.004 67.7,-0.016 67.403,-0.039 67.107,-0.039 45.083,-0.044 23.06,-0.048 1.036,-0.049 0.691,-0.049 0.345,-0.017 0,0" /></g><g
           transform="translate(473.994,345.1643)"
           id="g52"><path
             id="path54"
             style="fill:#c9d3c3;fill-opacity:1;fill-rule:nonzero;stroke:none"
             d="m 0,0 c 0.01,0.084 0.014,0.168 0.012,0.252 l 23.76,0 C 23.763,0.17 23.755,0.089 23.748,0.007 15.832,0.005 7.916,0.002 0,0" /></g><g
           transform="translate(497.7423,345.1712)"
           id="g56"><path
             id="path58"
             style="fill:#89a689;fill-opacity:1;fill-rule:nonzero;stroke:none"
             d="m 0,0 c 0.006,0.082 0.014,0.163 0.024,0.245 l 15.444,0 c -0.054,-0.35 -0.237,-0.565 -0.609,-0.58 -0.396,0.574 -0.989,0.29 -1.482,0.293 C 8.918,-0.008 4.459,-0.009 0,0" /></g><g
           transform="translate(497.7423,345.1712)"
           id="g60"><path
             id="path62"
             style="fill:#1e6944;fill-opacity:1;fill-rule:nonzero;stroke:none"
             d="m 0,0 c 4.459,-0.009 8.918,-0.008 13.377,-0.042 0.493,-0.003 1.086,0.281 1.482,-0.293 -5.54,-2.921 -10.797,-6.25 -15.337,-10.613 -0.706,-0.678 -1.456,-1.321 -1.957,-2.186 -0.877,-0.59 -1.41,-1.496 -2.056,-2.291 -2.281,-2.811 -4.634,-5.571 -6.522,-8.679 -5.067,1.292 -10.14,2.546 -15.321,3.328 -5.434,0.82 -10.915,1.157 -16.375,1.701 -9.901,0.986 -19.855,1.135 -29.784,1.682 -1.803,0.1 -2.275,-0.259 -2.94,-2.22 -3.723,-10.979 -6.801,-22.155 -10.081,-33.269 -17.354,-58.809 -34.679,-117.626 -52.032,-176.434 -1.197,-4.057 -2.538,-8.071 -3.872,-12.296 5.615,0 11.055,0.016 16.494,-0.003 11.333,-0.042 22.667,-0.084 33.999,-0.181 1.126,-0.01 1.579,0.275 1.901,1.405 5.981,20.916 12.016,41.817 18.043,62.72 0.066,0.23 0.184,0.444 0.278,0.666 -0.027,-0.392 -0.004,-0.795 -0.09,-1.173 -1.834,-8.071 -3.689,-16.137 -5.519,-24.209 -1.241,-5.472 -2.151,-11.041 -3.755,-16.403 -1.794,-5.996 -4.107,-11.846 -6.372,-17.691 -3.34,-8.619 -7.234,-16.958 -11.916,-24.973 -3.28,-5.616 -5.651,-11.757 -8.554,-17.601 -2.523,-5.078 -4.353,-10.531 -7.871,-15.083 -4.666,-6.037 -8.916,-12.421 -15.497,-16.746 -3.415,-2.245 -6.502,-4.975 -10.293,-6.661 -4.881,-2.169 -10.095,-2.324 -15.251,-2.326 -21.672,-0.01 -43.344,-0.04 -65.017,0.147 -21.372,0.185 -42.751,0.374 -64.125,-0.147 -4.749,-0.115 -9.503,-0.018 -14.255,-0.019 -6.726,0.316 -13.456,0.146 -20.185,0.191 -1.433,0.01 -2.866,0.002 -4.375,0.14 12.335,6.329 23.42,14.283 32.891,24.543 -0.678,-3.168 -1.339,-6.338 -2.038,-9.501 -0.683,-3.083 -0.7,-3.088 2.421,-3.078 13.758,0.044 27.516,0.108 41.274,0.113 1.079,0 1.384,0.344 1.593,1.35 4.877,23.392 9.798,46.774 14.701,70.16 4.499,21.453 8.983,42.909 13.48,64.362 4.405,21.018 8.805,42.037 13.232,63.051 1.485,7.052 2.727,14.156 4.535,21.138 0.279,1.077 -0.045,1.287 -1.099,1.289 -11.53,0.03 -23.061,0.11 -34.591,0.18 -0.39,0.002 -0.779,0.035 -1.401,0.065 1.124,3.062 2.157,6.032 3.3,8.959 6.738,17.261 15.33,33.493 26.989,47.98 8.555,10.63 18.61,19.53 30.684,26.025 3.124,1.68 6.461,2.699 10.021,2.922 6.076,-0.018 12.153,-0.051 18.23,-0.053 18.729,-0.007 37.457,-0.003 56.185,-0.001 0.542,0.001 1.085,0.034 1.627,0.052 0.345,-0.017 0.69,-0.049 1.036,-0.049 22.023,0.001 44.047,0.005 66.071,0.01 0.296,0 0.592,0.023 0.889,0.035 C -15.832,-0.005 -7.916,-0.002 0,0" /></g><g
           transform="translate(476.0587,279.6849)"
           id="g64"><path
             id="path66"
             style="fill:#443946;fill-opacity:1;fill-rule:nonzero;stroke:none"
             d="m 0,0 c 0,0.643 0.033,1.287 -0.005,1.928 -0.399,6.73 -3.92,11.023 -10.131,12.304 -1.751,0.362 -3.528,0.295 -5.316,0.208 -1.04,-0.051 -1.416,-0.42 -1.687,-1.365 -5.543,-19.341 -11.118,-38.672 -16.683,-58.007 -0.272,-0.945 -0.98,-2.175 -0.631,-2.784 0.437,-0.762 1.866,-0.494 2.862,-0.689 0.146,-0.029 0.287,-0.081 0.433,-0.103 7.512,-1.145 13.632,1.151 18.157,7.365 1.283,1.762 2.318,3.669 3.251,5.635 3.059,6.451 4.848,13.331 6.837,20.146 C -1.444,-10.331 -0.036,-5.296 0,0 m 2.996,-63.853 c 1.646,-1.231 3.163,-2.316 4.627,-3.469 8.15,-6.418 10.878,-15.081 10.38,-25.09 -0.457,-9.214 -2.929,-18.006 -5.478,-26.792 -5.047,-17.396 -10.049,-34.804 -15.02,-52.222 -0.321,-1.127 -0.781,-1.422 -1.917,-1.414 -13.265,0.096 -26.531,0.152 -39.796,0.152 -1.393,0 -1.629,0.256 -1.231,1.618 6.531,22.36 13.034,44.728 19.485,67.111 1.509,5.236 2.534,10.577 2.488,16.066 -0.016,1.785 -0.185,3.56 -0.72,5.273 -1.5,4.798 -5.15,7.059 -9.758,8.068 -2.362,0.517 -4.781,0.774 -7.155,1.242 -1.124,0.222 -1.076,-0.597 -1.248,-1.191 -3.001,-10.384 -5.988,-20.772 -8.974,-31.16 -6.271,-21.82 -12.545,-43.639 -18.791,-65.466 -0.281,-0.983 -0.629,-1.415 -1.775,-1.409 -13.908,0.076 -27.818,0.085 -41.727,0.114 -0.293,0 -0.586,0.026 -0.994,0.045 1.128,3.73 2.26,7.397 3.346,11.077 19.382,65.701 38.756,131.404 58.144,197.103 0.754,2.555 1.648,5.067 2.446,7.609 0.199,0.635 0.449,0.97 1.214,0.923 9.48,-0.593 18.99,-0.686 28.448,-1.673 5.802,-0.606 11.638,-0.892 17.399,-1.883 11.492,-1.977 22.476,-5.338 32.29,-11.867 7.336,-4.881 12.413,-11.383 14.259,-20.151 1.173,-5.568 0.905,-11.184 -0.227,-16.666 -2.537,-12.29 -5.707,-24.427 -10.98,-35.88 -2.215,-4.811 -4.809,-9.445 -9.199,-12.735 -4.443,-3.33 -9.541,-5.112 -14.88,-6.33 -1.479,-0.338 -2.966,-0.64 -4.656,-1.003" /></g><g
           transform="translate(198.9442,134.0369)"
           id="g68"><path
             id="path70"
             style="fill:#1c6945;fill-opacity:1;fill-rule:nonzero;stroke:none"
             d="m 0,0 c 0.227,-0.071 0.321,-0.126 0.415,-0.126 8.661,-0.007 17.322,-0.024 25.982,0.002 1.193,0.003 1.963,0.619 2.224,1.905 1.673,8.224 3.397,16.438 5.09,24.658 4.452,21.615 8.884,43.234 13.378,64.839 0.254,1.221 -0.144,1.272 -1.114,1.283 -4.354,0.048 -8.71,0.093 -13.059,0.282 -1.327,0.058 -1.861,-0.329 -2.278,-1.577 C 23.653,70.358 16.613,49.468 9.59,28.573 6.402,19.089 3.222,9.602 0,0 m -73.716,-92.357 c 3.535,8.657 6.471,17.341 9.515,25.986 21.912,62.236 43.808,124.478 65.688,186.727 0.336,0.955 0.716,1.359 1.826,1.353 29.346,-0.154 58.693,-0.27 88.039,-0.345 1.258,-0.004 1.281,-0.353 1.06,-1.404 C 86.34,91.07 80.31,62.171 74.252,33.279 68.062,3.758 61.845,-25.757 55.649,-55.276 c -2.514,-11.982 -5.012,-23.968 -7.496,-35.956 -0.188,-0.907 -0.396,-1.424 -1.553,-1.423 -12.026,0.013 -24.051,-0.048 -36.077,-0.085 -0.194,0 -0.388,0.037 -0.689,0.067 1.138,5.241 2.264,10.439 3.396,15.635 3.363,15.433 6.737,30.864 10.083,46.3 0.418,1.93 0.671,3.894 1.053,5.832 0.168,0.85 -0.064,1.086 -0.94,1.079 -9.848,-0.07 -19.696,-0.123 -29.544,-0.112 -1.11,0.002 -1.296,-0.649 -1.565,-1.387 -3.074,-8.432 -6.149,-16.864 -9.218,-25.298 -4.959,-13.624 -9.918,-27.248 -14.863,-40.877 -0.274,-0.755 -0.55,-1.207 -1.525,-1.198 -13.262,0.119 -26.524,0.185 -39.787,0.266 -0.145,0.001 -0.291,0.033 -0.64,0.076" /></g><g
           transform="translate(49.3051,124.6456)"
           id="g72"><path
             id="path74"
             style="fill:#1c6945;fill-opacity:1;fill-rule:nonzero;stroke:none"
             d="m 0,0 c 6.285,0 12.572,-0.053 18.856,0.038 1.526,0.022 1.509,-0.437 1.179,-1.655 -3.482,-12.858 -6.93,-25.725 -10.347,-38.6 -0.685,-2.582 -1.114,-5.219 -1.091,-7.91 0.042,-4.791 3.107,-8.345 7.867,-9.101 6.045,-0.96 10.66,1.328 13.486,6.782 2.38,4.594 3.534,9.614 4.899,14.556 2.285,8.274 4.595,16.541 6.828,24.83 1.601,5.94 0.51,11.428 -2.966,16.496 -4.639,6.762 -10.554,12.294 -16.762,17.547 -3.702,3.131 -7.459,6.196 -11.14,9.352 -5.923,5.078 -10.753,10.897 -12.526,18.766 -1.468,6.514 -1.121,12.994 0.521,19.389 2.808,10.939 5.387,21.966 9.231,32.591 6.064,16.76 18.29,26.24 35.85,28.579 15.272,2.034 30.058,-0.111 44.131,-6.505 5.146,-2.338 9.615,-5.68 13.276,-10.02 5.502,-6.523 7.015,-14.185 6.384,-22.475 -0.597,-7.841 -3.582,-15.041 -5.899,-22.421 -1.167,-3.717 -2.471,-7.391 -3.628,-11.11 -0.278,-0.892 -0.688,-1.112 -1.565,-1.109 -12.521,0.044 -25.042,0.065 -37.563,0.049 -1.102,-0.002 -1.181,0.277 -0.914,1.269 2.687,10.006 5.344,20.02 7.954,30.047 0.76,2.92 1.274,5.895 1.131,8.943 -0.148,3.146 -1.744,5.361 -4.583,6.519 -4.604,1.879 -10.253,1.399 -13.238,-4.532 -2.12,-4.214 -3.352,-8.737 -4.596,-13.256 -1.978,-7.182 -3.957,-14.363 -5.95,-21.541 -1.514,-5.45 -0.56,-10.434 2.655,-15.065 4.081,-5.879 9.319,-10.6 14.766,-15.146 5.432,-4.534 11.426,-8.344 16.681,-13.102 8.695,-7.873 12.116,-17.62 10.625,-29.215 -0.995,-7.731 -3.392,-15.111 -5.456,-22.573 -2.301,-8.318 -4.227,-16.753 -7.104,-24.899 -5.851,-16.569 -17.919,-25.739 -34.915,-28.869 -9.665,-1.781 -19.302,-1.152 -28.926,0.424 -6.822,1.117 -13.674,2.093 -20.247,4.343 -9.162,3.136 -15.589,9.186 -18.776,18.362 -1.722,4.961 -1.388,10.157 -0.662,15.281 1.377,9.724 4.806,18.921 7.409,28.328 1.433,5.182 3.052,10.312 4.502,15.488 0.271,0.968 0.675,1.213 1.619,1.208 C -12.67,0.044 -6.335,0.063 0,0.063 0,0.042 0,0.021 0,0" /></g><g
           transform="translate(537.9142,128.0203)"
           id="g76"><path
             id="path78"
             style="fill:#443946;fill-opacity:1;fill-rule:nonzero;stroke:none"
             d="m 0,0 42.322,0 c -0.861,-2.793 -1.69,-5.473 -2.513,-8.156 -1.405,-4.575 -2.828,-9.145 -4.186,-13.735 -0.261,-0.884 -0.593,-1.251 -1.59,-1.251 -27.32,0.007 -54.639,-0.015 -81.958,-0.069 -1.234,-0.002 -1.208,0.337 -0.861,1.327 25.373,72.293 50.726,144.593 76.063,216.898 0.305,0.87 0.586,1.359 1.698,1.353 26.328,-0.145 52.656,-0.239 78.984,-0.344 0.242,-0.001 0.483,-0.033 0.855,-0.06 -1.386,-4.244 -2.74,-8.413 -4.107,-12.577 -2.447,-7.454 -4.919,-14.898 -7.33,-22.363 -0.336,-1.04 -0.775,-1.447 -1.936,-1.44 -12.719,0.079 -25.438,0.072 -38.156,0.153 -1.197,0.008 -1.705,-0.343 -2.094,-1.465 -6.292,-18.13 -12.622,-36.248 -18.98,-54.355 -0.43,-1.224 -0.306,-1.537 1.08,-1.529 10.442,0.058 20.885,0.031 31.328,0.031 l 1.606,0 c 0.238,-0.609 -0.142,-1.019 -0.325,-1.45 C 66.471,92.883 63.008,84.812 59.603,76.717 59.18,75.712 58.674,75.364 57.547,75.371 47.599,75.432 37.651,75.398 27.703,75.439 26.669,75.443 26.169,75.189 25.806,74.141 17.394,49.906 8.937,25.687 0.489,1.464 0.345,1.05 0.211,0.632 0,0" /></g><g
           transform="translate(198.5243,25.2815)"
           id="g80"><path
             id="path82"
             style="fill:#443946;fill-opacity:1;fill-rule:nonzero;stroke:none"
             d="M 0,0 C 4.752,0.001 9.506,-0.097 14.255,0.019 35.629,0.54 57.008,0.35 78.38,0.166 c 21.673,-0.187 43.345,-0.157 65.017,-0.148 5.156,0.002 10.37,0.157 15.251,2.327 3.791,1.685 6.878,4.416 10.293,6.661 6.581,4.325 10.831,10.708 15.497,16.745 3.518,4.553 5.348,10.005 7.871,15.084 2.903,5.844 5.274,11.985 8.554,17.6 4.682,8.015 8.576,16.355 11.916,24.973 2.265,5.845 4.578,11.695 6.372,17.692 1.604,5.362 2.514,10.931 3.755,16.403 1.83,8.071 3.685,16.138 5.519,24.209 0.086,0.378 0.063,0.781 0.09,1.172 1.436,5.128 2.857,10.26 4.313,15.381 1.633,5.742 3.327,11.467 4.927,17.218 0.315,1.132 0.61,1.614 1.969,1.298 2.061,-0.479 4.182,-0.674 6.144,-1.573 0.902,-0.413 1.154,-0.855 0.92,-1.927 -3.499,-16.007 -7.034,-32.012 -9.84,-48.157 -2.612,-15.025 -5.805,-29.903 -10.779,-44.33 C 219.453,61.32 211.643,42.321 200.631,24.795 192.498,11.851 182.504,0.63 170.138,-8.452 c -3.383,-2.485 -7.085,-3.63 -11.178,-3.747 -11.528,-0.33 -23.058,0.004 -34.587,-0.012 -26.576,-0.039 -53.151,-0.044 -79.726,-0.035 -19.746,0.006 -39.492,0.057 -59.238,0.088 -0.423,10e-4 -0.847,0 -1.744,0 C -10.532,-8.071 -4.916,-4.498 0,0" /></g><g
           transform="translate(486.7294,321.0672)"
           id="g84"><path
             id="path86"
             style="fill:#453a47;fill-opacity:1;fill-rule:nonzero;stroke:none"
             d="M 0,0 C 1.888,3.108 4.241,5.868 6.522,8.679 7.168,9.474 7.701,10.38 8.578,10.97 12.732,10.38 16.885,9.791 21.038,9.198 21.863,9.08 22.686,8.944 23.642,8.796 23.044,8.133 22.325,7.807 21.642,7.49 16.755,5.222 12.8,1.749 9.202,-2.162 8.502,-2.923 7.958,-2.984 7.052,-2.619 4.727,-1.683 2.354,-0.865 0,0" /></g><g
           transform="translate(468.7266,288.7625)"
           id="g88"><path
             id="path90"
             style="fill:#fbfbfb;fill-opacity:1;fill-rule:nonzero;stroke:none"
             d="m 0,0 c -1.535,1.218 -3.361,1.512 -5.237,1.726 -1.048,0.12 -1.416,-0.287 -1.693,-1.257 -3.6,-12.593 -7.246,-25.173 -10.879,-37.757 -1.488,-5.156 -2.985,-10.309 -4.437,-15.476 -0.119,-0.422 -0.751,-1.26 0.381,-1.31 1.316,-0.058 2.658,-0.297 3.948,0.221 3.241,0.154 4.606,1.148 5.645,4.079 1.3,3.667 2.683,7.307 3.905,11 3.327,10.063 6.942,20.014 11.209,29.722 C 4.213,-5.933 2.916,-1.878 0,0 M 7.332,-9.078 C 7.296,-14.374 5.888,-19.409 4.419,-24.44 2.43,-31.255 0.641,-38.134 -2.418,-44.585 c -0.933,-1.966 -1.968,-3.873 -3.251,-5.635 -4.525,-6.214 -10.645,-8.511 -18.157,-7.366 -0.146,0.022 -0.287,0.075 -0.432,0.103 -0.997,0.195 -2.426,-0.073 -2.863,0.689 -0.348,0.609 0.359,1.84 0.631,2.785 5.565,19.334 11.14,38.666 16.684,58.007 0.271,0.945 0.647,1.314 1.686,1.364 1.788,0.087 3.565,0.154 5.316,-0.207 C 3.407,3.874 6.928,-0.419 7.327,-7.15 7.365,-7.79 7.332,-8.435 7.332,-9.078" /></g><g
           transform="translate(198.9442,134.0369)"
           id="g92"><path
             id="path94"
             style="fill:#fefefe;fill-opacity:1;fill-rule:nonzero;stroke:none"
             d="m 0,0 c 3.222,9.602 6.402,19.089 9.59,28.573 7.023,20.895 14.063,41.785 21.048,62.693 0.417,1.248 0.951,1.635 2.278,1.577 4.349,-0.189 8.705,-0.234 13.059,-0.282 0.97,-0.011 1.368,-0.062 1.114,-1.283 C 42.595,69.673 38.163,48.054 33.711,26.439 32.018,18.219 30.294,10.005 28.621,1.781 28.36,0.495 27.59,-0.121 26.397,-0.124 17.737,-0.15 9.076,-0.133 0.415,-0.126 0.321,-0.126 0.227,-0.071 0,0" /></g><g
           transform="translate(450.8091,234.9092)"
           id="g96"><path
             id="path98"
             style="fill:#226845;fill-opacity:1;fill-rule:nonzero;stroke:none"
             d="m 0,0 c -1.289,-0.518 -2.632,-0.279 -3.948,-0.221 -1.131,0.05 -0.499,0.888 -0.38,1.311 1.451,5.166 2.948,10.32 4.437,15.476 3.633,12.583 7.279,25.163 10.878,37.756 0.278,0.971 0.645,1.377 1.693,1.258 1.877,-0.215 3.702,-0.509 5.237,-1.726 C 15.395,48.008 13.129,42.063 11.013,36.061 6.83,24.197 3.61,12.039 0,0" /></g><g
           transform="translate(450.8091,234.9092)"
           id="g100"><path
             id="path102"
             style="fill:#453a47;fill-opacity:1;fill-rule:nonzero;stroke:none"
             d="m 0,0 c 3.61,12.039 6.83,24.197 11.013,36.061 2.116,6.002 4.382,11.947 6.904,17.793 2.917,-1.879 4.213,-5.934 2.842,-9.053 C 16.493,35.093 12.878,25.142 9.55,15.079 8.329,11.386 6.946,7.746 5.646,4.079 4.607,1.148 3.242,0.155 0,0" /></g></g></g></g></svg>