<?xml version="1.0" encoding="UTF-8" standalone="no"?>
<svg
   xmlns:dc="http://purl.org/dc/elements/1.1/"
   xmlns:cc="http://creativecommons.org/ns#"
   xmlns:rdf="http://www.w3.org/1999/02/22-rdf-syntax-ns#"
   xmlns:svg="http://www.w3.org/2000/svg"
   xmlns="http://www.w3.org/2000/svg"
   viewBox="0 0 409.82126 292.85751"
   height="292.85751"
   width="409.82126"
   xml:space="preserve"
   version="1.1"
   id="svg2"><metadata
     id="metadata8"><rdf:RDF><cc:Work
         rdf:about=""><dc:format>image/svg+xml</dc:format><dc:type
           rdf:resource="http://purl.org/dc/dcmitype/StillImage" /></cc:Work></rdf:RDF></metadata><defs
     id="defs6"><clipPath
       id="clipPath16"
       clipPathUnits="userSpaceOnUse"><path
         id="path18"
         d="m 164.027,148.465 c -17.552,-17.554 -18.594,-44.97 -2.325,-61.24 l 0,0 13.583,-13.583 c 11.049,1.557 21.322,5.501 30.298,11.297 l 0,0 -18.594,18.591 c -7.293,7.295 -8.286,18.125 -2.22,24.193 l 0,0 c 6.068,6.067 16.899,5.074 24.193,-2.22 l 0,0 18.728,-18.731 c 5.869,8.857 9.929,19.018 11.636,29.961 l 0,0 -14.057,14.057 c -7.731,7.73 -17.979,11.553 -28.488,11.553 l 0,0 c -11.609,0 -23.54,-4.665 -32.754,-13.878" /></clipPath><linearGradient
       id="linearGradient24"
       spreadMethod="pad"
       gradientTransform="matrix(63.55405,63.55405,63.55405,-63.55405,161.68811,87.301399)"
       gradientUnits="userSpaceOnUse"
       y2="0"
       x2="1"
       y1="0"
       x1="0"><stop
         id="stop26"
         offset="0"
         style="stop-opacity:1;stop-color:#c52e43" /><stop
         id="stop28"
         offset="0.11560775"
         style="stop-opacity:1;stop-color:#c52e43" /><stop
         id="stop30"
         offset="1"
         style="stop-opacity:1;stop-color:#e8667f" /></linearGradient><clipPath
       id="clipPath38"
       clipPathUnits="userSpaceOnUse"><path
         id="path40"
         d="m 161.702,209.704 c -16.269,-16.267 -15.227,-43.686 2.325,-61.239 l 0,0 c 17.556,-17.554 44.972,-18.591 61.242,-2.324 l 0,0 14.057,14.058 c -1.707,10.942 -5.767,21.1 -11.634,29.957 l 0,0 -18.73,-18.729 c -7.294,-7.293 -18.125,-8.285 -24.193,-2.219 l 0,0 c -6.066,6.066 -5.073,16.899 2.222,24.191 l 0,0 18.592,18.592 c -8.974,5.795 -19.249,9.742 -30.298,11.299 l 0,0 -13.583,-13.586 z" /></clipPath><linearGradient
       id="linearGradient46"
       spreadMethod="pad"
       gradientTransform="matrix(53.860882,-49.871151,-49.871151,-53.860882,160.25499,206.32639)"
       gradientUnits="userSpaceOnUse"
       y2="0"
       x2="1"
       y1="0"
       x1="0"><stop
         id="stop48"
         offset="0"
         style="stop-opacity:1;stop-color:#37b196" /><stop
         id="stop50"
         offset="0.76046784"
         style="stop-opacity:1;stop-color:#765297" /><stop
         id="stop52"
         offset="1"
         style="stop-opacity:1;stop-color:#765297" /></linearGradient><clipPath
       id="clipPath60"
       clipPathUnits="userSpaceOnUse"><path
         id="path62"
         d="M 122.961,211.504 141.065,193.4 c 7.294,-7.293 8.287,-18.124 2.22,-24.192 l 0,0 c -6.068,-6.066 -16.898,-5.074 -24.193,2.219 l 0,0 -17.966,17.97 c -5.794,-8.976 -9.741,-19.25 -11.297,-30.298 l 0,0 12.959,-12.958 c 16.269,-16.267 43.687,-15.23 61.239,2.325 l 0,0 c 17.556,17.552 18.596,44.971 2.325,61.238 l 0,0 -13.433,13.435 c -10.941,-1.707 -21.101,-5.766 -29.958,-11.635" /></clipPath><linearGradient
       id="linearGradient68"
       spreadMethod="pad"
       gradientTransform="matrix(53.043747,47.556431,47.556431,-53.043747,115.81553,158.20784)"
       gradientUnits="userSpaceOnUse"
       y2="0"
       x2="1"
       y1="0"
       x1="0"><stop
         id="stop70"
         offset="0"
         style="stop-opacity:1;stop-color:#77c141" /><stop
         id="stop72"
         offset="0.88033594"
         style="stop-opacity:1;stop-color:#31945d" /><stop
         id="stop74"
         offset="1"
         style="stop-opacity:1;stop-color:#31945d" /></linearGradient><clipPath
       id="clipPath82"
       clipPathUnits="userSpaceOnUse"><path
         id="path84"
         d="M 102.788,150.79 89.829,137.832 c 1.556,-11.048 5.503,-21.321 11.297,-30.297 l 0,0 17.966,17.968 c 7.295,7.294 18.125,8.287 24.193,2.221 l 0,0 c 6.066,-6.068 5.074,-16.899 -2.221,-24.193 l 0,0 -18.103,-18.103 c 8.857,-5.872 19.017,-9.93 29.958,-11.635 l 0,0 13.433,13.432 c 16.271,16.27 15.231,43.686 -2.325,61.241 l 0,0 c -9.213,9.212 -21.142,13.877 -32.752,13.877 l 0,0 c -10.511,0 -20.758,-3.822 -28.487,-11.553" /></clipPath><linearGradient
       id="linearGradient90"
       spreadMethod="pad"
       gradientTransform="matrix(63.550854,-63.550854,-63.550854,-63.550854,103.20884,151.08466)"
       gradientUnits="userSpaceOnUse"
       y2="0"
       x2="1"
       y1="0"
       x1="0"><stop
         id="stop92"
         offset="0"
         style="stop-opacity:1;stop-color:#ddcd37" /><stop
         id="stop94"
         offset="0.9466649"
         style="stop-opacity:1;stop-color:#e25934" /><stop
         id="stop96"
         offset="1"
         style="stop-opacity:1;stop-color:#e25934" /></linearGradient><linearGradient
       id="linearGradient112"
       spreadMethod="pad"
       gradientTransform="matrix(0,89.894997,89.894997,0,201.32877,103.51772)"
       gradientUnits="userSpaceOnUse"
       y2="0"
       x2="1"
       y1="0"
       x1="0"><stop
         id="stop114"
         offset="0"
         style="stop-opacity:1;stop-color:#e44f7f" /><stop
         id="stop116"
         offset="0.89919163"
         style="stop-opacity:1;stop-color:#684589" /><stop
         id="stop118"
         offset="1"
         style="stop-opacity:1;stop-color:#684589" /></linearGradient><linearGradient
       id="linearGradient134"
       spreadMethod="pad"
       gradientTransform="matrix(0,89.894997,89.894997,0,201.32877,103.51772)"
       gradientUnits="userSpaceOnUse"
       y2="0"
       x2="1"
       y1="0"
       x1="0"><stop
         id="stop136"
         offset="0"
         style="stop-opacity:1;stop-color:#e8667f" /><stop
         id="stop138"
         offset="0.85154939"
         style="stop-opacity:1;stop-color:#765297" /><stop
         id="stop140"
         offset="1"
         style="stop-opacity:1;stop-color:#765297" /></linearGradient><clipPath
       id="clipPath148"
       clipPathUnits="userSpaceOnUse"><path
         id="path150"
         d="m 0,234.286 327.857,0 L 327.857,0 0,0 0,234.286 Z" /></clipPath><clipPath
       id="clipPath156"
       clipPathUnits="userSpaceOnUse"><path
         id="path158"
         d="m 193.844,164.003 45.053,0 0,-12.032 -45.053,0 0,12.032 z" /></clipPath><clipPath
       id="clipPath160"
       clipPathUnits="userSpaceOnUse"><path
         id="path162"
         d="m 193.844,151.97 45.05,0 0,12.032 -45.05,0 0,-12.032 z" /></clipPath><linearGradient
       id="linearGradient188"
       spreadMethod="pad"
       gradientTransform="matrix(89.101212,18.385996,18.385996,-89.101212,122.49937,176.94891)"
       gradientUnits="userSpaceOnUse"
       y2="0"
       x2="1"
       y1="0"
       x1="0"><stop
         id="stop190"
         offset="0"
         style="stop-opacity:1;stop-color:#31945d" /><stop
         id="stop192"
         offset="0.33"
         style="stop-opacity:1;stop-color:#31945d" /><stop
         id="stop194"
         offset="0.81526313"
         style="stop-opacity:1;stop-color:#31945d" /><stop
         id="stop196"
         offset="1"
         style="stop-opacity:1;stop-color:#37b196" /></linearGradient><clipPath
       id="clipPath204"
       clipPathUnits="userSpaceOnUse"><path
         id="path206"
         d="m 0,234.286 327.857,0 L 327.857,0 0,0 0,234.286 Z" /></clipPath><clipPath
       id="clipPath212"
       clipPathUnits="userSpaceOnUse"><path
         id="path214"
         d="m 148.491,222.585 12.031,0 0,-44.302 -12.031,0 0,44.302 z" /></clipPath><clipPath
       id="clipPath216"
       clipPathUnits="userSpaceOnUse"><path
         id="path218"
         d="m 148.491,178.283 12.03,0 0,44.302 -12.03,0 0,-44.302 z" /></clipPath><clipPath
       id="clipPath236"
       clipPathUnits="userSpaceOnUse"><path
         id="path238"
         d="m 149.542,193.413 60.755,0 0,-45.388 -60.755,0 0,45.388 z" /></clipPath><clipPath
       id="clipPath240"
       clipPathUnits="userSpaceOnUse"><path
         id="path242"
         d="m 149.543,148.026 60.754,0 0,45.387 -60.754,0 0,-45.387 z" /></clipPath><linearGradient
       id="linearGradient268"
       spreadMethod="pad"
       gradientTransform="matrix(-16.970596,88.623993,88.623993,16.970596,135.24451,107.24739)"
       gradientUnits="userSpaceOnUse"
       y2="0"
       x2="1"
       y1="0"
       x1="0"><stop
         id="stop270"
         offset="0"
         style="stop-opacity:1;stop-color:#ddcd37" /><stop
         id="stop272"
         offset="0.64446202"
         style="stop-opacity:1;stop-color:#77c141" /><stop
         id="stop274"
         offset="0.66"
         style="stop-opacity:1;stop-color:#77c141" /><stop
         id="stop276"
         offset="1"
         style="stop-opacity:1;stop-color:#77c141" /></linearGradient><clipPath
       id="clipPath284"
       clipPathUnits="userSpaceOnUse"><path
         id="path286"
         d="m 0,234.286 327.857,0 L 327.857,0 0,0 0,234.286 Z" /></clipPath><clipPath
       id="clipPath292"
       clipPathUnits="userSpaceOnUse"><path
         id="path294"
         d="m 90.421,144.961 43.789,0 0,-12.032 -43.789,0 0,12.032 z" /></clipPath><clipPath
       id="clipPath296"
       clipPathUnits="userSpaceOnUse"><path
         id="path298"
         d="m 90.421,132.93 43.789,0 0,12.031 -43.789,0 0,-12.031 z" /></clipPath><clipPath
       id="clipPath316"
       clipPathUnits="userSpaceOnUse"><path
         id="path318"
         d="m 119.079,194.735 45.389,0 0,-60.753 -45.389,0 0,60.753 z" /></clipPath><clipPath
       id="clipPath320"
       clipPathUnits="userSpaceOnUse"><path
         id="path322"
         d="m 119.079,133.982 45.388,0 0,60.753 -45.388,0 0,-60.753 z" /></clipPath><linearGradient
       id="linearGradient348"
       spreadMethod="pad"
       gradientTransform="matrix(88.661263,18.864082,18.864082,-88.661263,116.68671,101.34028)"
       gradientUnits="userSpaceOnUse"
       y2="0"
       x2="1"
       y1="0"
       x1="0"><stop
         id="stop350"
         offset="0"
         style="stop-opacity:1;stop-color:#e25934" /><stop
         id="stop352"
         offset="0.60925514"
         style="stop-opacity:1;stop-color:#c52e43" /><stop
         id="stop354"
         offset="0.66"
         style="stop-opacity:1;stop-color:#c52e43" /><stop
         id="stop356"
         offset="1"
         style="stop-opacity:1;stop-color:#c52e43" /></linearGradient><clipPath
       id="clipPath364"
       clipPathUnits="userSpaceOnUse"><path
         id="path366"
         d="m 0,234.286 327.857,0 L 327.857,0 0,0 0,234.286 Z" /></clipPath><clipPath
       id="clipPath372"
       clipPathUnits="userSpaceOnUse"><path
         id="path374"
         d="m 167.532,118.649 12.033,0 0,-44.5317 -12.033,0 0,44.5317 z" /></clipPath><clipPath
       id="clipPath376"
       clipPathUnits="userSpaceOnUse"><path
         id="path378"
         d="m 167.534,74.118 12.029,0 0,44.531 -12.029,0 0,-44.531 z" /></clipPath><clipPath
       id="clipPath400"
       clipPathUnits="userSpaceOnUse"><path
         id="path402"
         d="m 117.758,148.906 60.754,0 0,-45.388 -60.754,0 0,45.388 z" /></clipPath><clipPath
       id="clipPath404"
       clipPathUnits="userSpaceOnUse"><path
         id="path406"
         d="m 117.759,103.518 60.753,0 0,45.388 -60.753,0 0,-45.388 z" /></clipPath></defs><g
     transform="matrix(1.25,0,0,-1.25,0,292.8575)"
     id="g10"><g
       id="g12"><g
         clip-path="url(#clipPath16)"
         id="g14"><g
           id="g20"><g
             id="g22"><path
               id="path32"
               style="fill:url(#linearGradient24);stroke:none"
               d="m 164.027,148.465 c -17.552,-17.554 -18.594,-44.97 -2.325,-61.24 l 0,0 13.583,-13.583 c 11.049,1.557 21.322,5.501 30.298,11.297 l 0,0 -18.594,18.591 c -7.293,7.295 -8.286,18.125 -2.22,24.193 l 0,0 c 6.068,6.067 16.899,5.074 24.193,-2.22 l 0,0 18.728,-18.731 c 5.869,8.857 9.929,19.018 11.636,29.961 l 0,0 -14.057,14.057 c -7.731,7.73 -17.979,11.553 -28.488,11.553 l 0,0 c -11.609,0 -23.54,-4.665 -32.754,-13.878" /></g></g></g></g><g
       id="g34"><g
         clip-path="url(#clipPath38)"
         id="g36"><g
           id="g42"><g
             id="g44"><path
               id="path54"
               style="fill:url(#linearGradient46);stroke:none"
               d="m 161.702,209.704 c -16.269,-16.267 -15.227,-43.686 2.325,-61.239 l 0,0 c 17.556,-17.554 44.972,-18.591 61.242,-2.324 l 0,0 14.057,14.058 c -1.707,10.942 -5.767,21.1 -11.634,29.957 l 0,0 -18.73,-18.729 c -7.294,-7.293 -18.125,-8.285 -24.193,-2.219 l 0,0 c -6.066,6.066 -5.073,16.899 2.222,24.191 l 0,0 18.592,18.592 c -8.974,5.795 -19.249,9.742 -30.298,11.299 l 0,0 -13.583,-13.586 z" /></g></g></g></g><g
       id="g56"><g
         clip-path="url(#clipPath60)"
         id="g58"><g
           id="g64"><g
             id="g66"><path
               id="path76"
               style="fill:url(#linearGradient68);stroke:none"
               d="M 122.961,211.504 141.065,193.4 c 7.294,-7.293 8.287,-18.124 2.22,-24.192 l 0,0 c -6.068,-6.066 -16.898,-5.074 -24.193,2.219 l 0,0 -17.966,17.97 c -5.794,-8.976 -9.741,-19.25 -11.297,-30.298 l 0,0 12.959,-12.958 c 16.269,-16.267 43.687,-15.23 61.239,2.325 l 0,0 c 17.556,17.552 18.596,44.971 2.325,61.238 l 0,0 -13.433,13.435 c -10.941,-1.707 -21.101,-5.766 -29.958,-11.635" /></g></g></g></g><g
       id="g78"><g
         clip-path="url(#clipPath82)"
         id="g80"><g
           id="g86"><g
             id="g88"><path
               id="path98"
               style="fill:url(#linearGradient90);stroke:none"
               d="M 102.788,150.79 89.829,137.832 c 1.556,-11.048 5.503,-21.321 11.297,-30.297 l 0,0 17.966,17.968 c 7.295,7.294 18.125,8.287 24.193,2.221 l 0,0 c 6.066,-6.068 5.074,-16.899 -2.221,-24.193 l 0,0 -18.103,-18.103 c 8.857,-5.872 19.017,-9.93 29.958,-11.635 l 0,0 13.433,13.432 c 16.271,16.27 15.231,43.686 -2.325,61.241 l 0,0 c -9.213,9.212 -21.142,13.877 -32.752,13.877 l 0,0 c -10.511,0 -20.758,-3.822 -28.487,-11.553" /></g></g></g></g><g
       id="g100"><g
         id="g102"><g
           id="g108"><g
             id="g110"><path
               id="path120"
               style="fill:url(#linearGradient112);stroke:none"
               d="m 205.686,193.413 c -23.006,0 -41.659,-20.123 -41.659,-44.948 l 0,0 c 0,-24.823 18.653,-44.947 41.659,-44.947 l 0,0 19.733,0 c 6.362,8.59 10.947,18.572 13.212,29.412 l 0,0 -26.592,0 c -10.317,0 -18.678,6.955 -18.678,15.535 l 0,0 c 0,8.581 8.361,15.538 18.678,15.538 l 0,0 26.592,0 c -2.265,10.837 -6.85,20.821 -13.212,29.41 l 0,0 -19.733,0 z" /></g></g></g></g><g
       id="g122"><g
         id="g124"><g
           id="g130"><g
             id="g132"><path
               id="path142"
               style="fill:url(#linearGradient134);stroke:none"
               d="m 205.686,193.413 c -23.006,0 -41.659,-20.123 -41.659,-44.948 l 0,0 c 0,-24.823 18.653,-44.947 41.659,-44.947 l 0,0 19.733,0 c 6.362,8.59 10.947,18.572 13.212,29.412 l 0,0 -26.592,0 c -10.317,0 -18.678,6.955 -18.678,15.535 l 0,0 c 0,8.581 8.361,15.538 18.678,15.538 l 0,0 26.592,0 c -2.265,10.837 -6.85,20.821 -13.212,29.41 l 0,0 -19.733,0 z" /></g></g></g></g><g
       id="g144"><g
         clip-path="url(#clipPath148)"
         id="g146"><g
           id="g152"><g
             id="g154" /><g
             id="g164"><g
               id="g166"
               clip-path="url(#clipPath156)"><g
                 id="g168"><g
                   id="g170"
                   clip-path="url(#clipPath160)"><g
                     id="g172"
                     transform="translate(193.8448,151.9708)"><path
                       id="path174"
                       style="fill:#8e9597;fill-opacity:1;fill-rule:nonzero;stroke:none"
                       d="m 0,0 c 2.441,6.217 9.464,10.709 17.752,10.709 l 27.3,-10e-4 c -0.093,0.442 -0.166,0.883 -0.265,1.323 l -26.595,0 C 9.328,12.031 1.911,6.891 0,0" /></g></g></g></g></g></g></g></g><g
       id="g176"><g
         id="g178"><g
           id="g184"><g
             id="g186"><path
               id="path198"
               style="fill:url(#linearGradient188);stroke:none"
               d="m 179.563,196.476 c 0,-10.316 -6.956,-18.677 -15.536,-18.677 l 0,0 c -8.579,0 -15.536,8.361 -15.536,18.677 l 0,0 0,25.822 c -10.859,-2.365 -20.848,-7.058 -29.412,-13.54 l 0,0 0,-18.633 c 0,-23.008 20.123,-41.66 44.948,-41.66 l 0,0 c 24.824,0 44.947,18.652 44.947,41.66 l 0,0 0,19.549 c -8.615,6.249 -18.589,10.732 -29.411,12.897 l 0,0 0,-26.095 z" /></g></g></g></g><g
       id="g200"><g
         clip-path="url(#clipPath204)"
         id="g202"><g
           id="g208"><g
             id="g210" /><g
             id="g220"><g
               id="g222"
               clip-path="url(#clipPath212)"><g
                 id="g224"><g
                   id="g226"
                   clip-path="url(#clipPath216)"><g
                     id="g228"
                     transform="translate(148.4913,222.2989)"><path
                       id="path230"
                       style="fill:#8e9597;fill-opacity:1;fill-rule:nonzero;stroke:none"
                       d="m 0,0 0,-25.824 c 0,-8.864 5.141,-16.281 12.03,-18.192 -6.216,2.442 -10.709,9.464 -10.709,17.752 L 1.307,0.285 C 0.864,0.188 0.439,0.104 0,0" /></g></g></g></g></g></g><g
           id="g232"><g
             id="g234" /><g
             id="g244"><g
               id="g246"
               clip-path="url(#clipPath236)"><g
                 id="g248"><g
                   id="g250"
                   clip-path="url(#clipPath240)"><g
                     id="g252"
                     transform="translate(208.9747,193.4132)"><path
                       id="path254"
                       style="fill:#8e9597;fill-opacity:1;fill-rule:nonzero;stroke:none"
                       d="m 0,0 0,-3.288 c 0,-23.008 -20.124,-41.66 -44.948,-41.66 -5.069,0 -9.939,0.779 -14.485,2.211 4.918,-1.712 10.245,-2.651 15.807,-2.651 24.824,0 44.948,18.651 44.948,41.658 L 1.322,0 0,0 Z" /></g></g></g></g></g></g></g></g><g
       id="g256"><g
         id="g258"><g
           id="g264"><g
             id="g266"><path
               id="path278"
               style="fill:url(#linearGradient268);stroke:none"
               d="M 103.889,193.413 C 97.527,184.824 92.94,174.84 90.676,164.003 l 0,0 25.342,0 c 10.313,0 18.674,-6.957 18.674,-15.537 l 0,0 c 0,-8.581 -8.361,-15.536 -18.674,-15.536 l 0,0 -25.342,0 c 2.264,-10.84 6.849,-20.822 13.213,-29.412 l 0,0 18.481,0 c 23.007,0 41.657,20.124 41.657,44.948 l 0,0 c 0,24.824 -18.65,44.947 -41.657,44.947 l 0,0 -18.481,0 z" /></g></g></g></g><g
       id="g280"><g
         clip-path="url(#clipPath284)"
         id="g282"><g
           id="g288"><g
             id="g290" /><g
             id="g300"><g
               id="g302"
               clip-path="url(#clipPath292)"><g
                 id="g304"><g
                   id="g306"
                   clip-path="url(#clipPath296)"><g
                     id="g308"
                     transform="translate(134.2101,144.9601)"><path
                       id="path310"
                       style="fill:#8e9597;fill-opacity:1;fill-rule:nonzero;stroke:none"
                       d="m 0,0 c -2.441,-6.217 -9.464,-10.709 -17.753,-10.709 l -26.036,10e-4 c 0.092,-0.442 0.159,-0.849 0.253,-1.323 l 25.343,0 C -9.329,-12.031 -1.912,-6.891 0,0" /></g></g></g></g></g></g><g
           id="g312"><g
             id="g314" /><g
             id="g324"><g
               id="g326"
               clip-path="url(#clipPath316)"><g
                 id="g328"><g
                   id="g330"
                   clip-path="url(#clipPath320)"><g
                     id="g332"
                     transform="translate(164.4679,149.7872)"><path
                       id="path334"
                       style="fill:#8e9597;fill-opacity:1;fill-rule:nonzero;stroke:none"
                       d="m 0,0 c 0,24.824 -18.65,44.947 -41.659,44.947 l -3.73,0 0,-1.321 3.289,0 c 23.009,0 41.66,-20.124 41.66,-44.948 0,-5.067 -0.778,-9.939 -2.212,-14.483 C -0.939,-10.889 0,-5.563 0,0" /></g></g></g></g></g></g></g></g><g
       id="g336"><g
         id="g338"><g
           id="g344"><g
             id="g346"><path
               id="path358"
               style="fill:url(#linearGradient348);stroke:none"
               d="m 119.079,106.807 0,-18.634 c 8.564,-6.483 18.553,-11.174 29.412,-13.541 l 0,0 0,25.822 c 0,10.317 6.955,18.677 15.536,18.677 l 0,0 c 8.58,0 15.536,-8.36 15.536,-18.677 l 0,0 0,-26.094 c 10.822,2.166 20.796,6.648 29.411,12.898 l 0,0 0,19.549 c 0,23.008 -20.123,41.658 -44.947,41.658 l 0,0 c -24.825,0 -44.948,-18.65 -44.948,-41.658" /></g></g></g></g><g
       id="g360"><g
         clip-path="url(#clipPath364)"
         id="g362"><g
           id="g368"><g
             id="g370" /><g
             id="g380"><g
               id="g382"
               clip-path="url(#clipPath372)"><g
                 id="g384"><g
                   id="g386"
                   clip-path="url(#clipPath376)"><g
                     id="g388"
                     transform="translate(179.5646,74.3605)"><path
                       id="path390"
                       style="fill:#8e9597;fill-opacity:1;fill-rule:nonzero;stroke:none"
                       d="m 0,0 0,26.095 c 0,8.864 -5.142,16.281 -12.031,18.193 6.215,-2.441 10.709,-9.464 10.709,-17.753 L -1.324,-0.243 C -0.883,-0.154 -0.441,-0.096 0,0" /></g></g></g></g></g></g><g
           transform="translate(193.3575,112.0704)"
           id="g392"><path
             id="path394"
             style="fill:#ffffff;fill-opacity:1;fill-rule:nonzero;stroke:none"
             d="m 0,0 c -0.089,1.768 -0.204,3.537 -0.347,5.305 -0.028,0.374 0.059,0.73 0.251,1.019 0.247,0.372 0.494,0.742 0.74,1.108 -0.133,0.003 -0.457,0.048 -0.475,0.05 -0.076,0.099 -0.152,0.2 -0.23,0.3 -0.085,0.111 -0.212,0.187 -0.348,0.2 -0.23,0.024 -0.461,0.049 -0.693,0.073 -0.009,0.11 -0.02,0.22 -0.03,0.33 0.179,0.057 0.291,0.224 0.27,0.437 -0.027,0.28 -0.28,0.534 -0.558,0.564 -0.282,0.031 -0.487,-0.174 -0.458,-0.456 0.021,-0.214 0.164,-0.41 0.36,-0.505 0.009,-0.111 0.02,-0.221 0.03,-0.331 -0.301,0.03 -0.603,0.059 -0.907,0.089 0.016,-0.151 0.031,-0.302 0.044,-0.451 -1.911,0.359 -3.738,-0.864 -7.268,3.146 -2.25,2.574 -4.38,3.49 -5.32,3.774 -0.3,0.091 -0.519,0.379 -0.54,0.69 -0.015,0.252 -0.03,0.503 -0.045,0.755 -0.022,0.33 -0.27,0.632 -0.59,0.707 -1.225,0.294 -4.103,1.031 -4.89,1.999 -1.144,1.408 -3.495,2.608 -4.579,3.066 -0.245,0.105 -0.497,-0.082 -0.493,-0.361 0.004,-0.229 -0.162,-0.409 -0.375,-0.404 -0.209,0.003 -0.419,0.007 -0.628,0.01 -0.267,0.005 -0.509,0.187 -0.605,0.459 -0.045,0.122 -0.086,0.242 -0.13,0.364 -0.098,0.272 -0.333,0.454 -0.6,0.456 -0.14,10e-4 -0.279,0.003 -0.417,0.003 -0.211,10e-4 -0.383,0.187 -0.383,0.414 l 0,0.366 c 0.326,0.206 0.518,0.626 0.411,1.086 -0.078,0.35 -0.348,0.632 -0.667,0.705 -0.57,0.133 -1.077,-0.346 -1.078,-0.952 -0.002,-0.358 0.175,-0.671 0.441,-0.839 -0.001,-0.122 -0.001,-0.244 -0.001,-0.366 -0.002,-0.227 -0.172,-0.413 -0.383,-0.414 -0.139,0 -0.279,-0.002 -0.418,-0.003 -0.266,-0.002 -0.506,-0.184 -0.6,-0.456 -0.043,-0.122 -0.086,-0.242 -0.129,-0.364 -0.095,-0.272 -0.336,-0.453 -0.605,-0.459 -0.209,-0.003 -0.419,-0.007 -0.628,-0.01 -0.21,-0.005 -0.382,0.176 -0.376,0.404 0.006,0.279 -0.248,0.466 -0.493,0.361 -1.087,-0.458 -3.435,-1.658 -4.578,-3.066 -0.786,-0.968 -3.666,-1.703 -4.89,-1.999 -0.318,-0.075 -0.567,-0.377 -0.59,-0.707 -0.015,-0.252 -0.03,-0.503 -0.045,-0.755 -0.02,-0.311 -0.238,-0.599 -0.541,-0.69 -0.941,-0.284 -3.07,-1.2 -5.319,-3.774 -3.53,-4.01 -5.356,-2.787 -7.269,-3.146 0.014,0.149 0.029,0.3 0.043,0.451 -0.302,-0.03 -0.604,-0.059 -0.905,-0.089 0.01,0.11 0.021,0.22 0.03,0.331 0.194,0.095 0.341,0.291 0.362,0.505 0.027,0.282 -0.181,0.487 -0.46,0.456 -0.279,-0.03 -0.531,-0.284 -0.558,-0.564 -0.019,-0.213 0.091,-0.38 0.27,-0.437 l -0.032,-0.33 c -0.23,-0.024 -0.461,-0.049 -0.692,-0.073 -0.132,-0.013 -0.263,-0.089 -0.349,-0.2 -0.074,-0.1 -0.153,-0.201 -0.228,-0.3 -0.018,0 -0.344,-0.047 -0.475,-0.05 0.244,-0.366 0.492,-0.736 0.74,-1.108 0.196,-0.289 0.279,-0.645 0.25,-1.019 -0.141,-1.768 -0.257,-3.537 -0.346,-5.305 -0.011,-0.247 -0.05,-0.496 -0.114,-0.74 -0.198,-0.769 -0.393,-1.536 -0.582,-2.301 0.095,0.003 0.191,0.006 0.287,0.009 0.054,0.003 0.109,0.005 0.166,0.006 -0.323,-10.098 0.254,-20.197 1.711,-30.296 0.093,-0.038 0.184,-0.08 0.276,-0.118 0.341,-0.14 0.674,-0.294 1.017,-0.429 1.093,-0.434 2.205,-0.837 3.325,-1.221 0.149,-0.052 0.298,-0.11 0.447,-0.162 1.489,-0.5 3.008,-0.942 4.538,-1.353 -0.874,8.879 -1.337,17.757 -1.385,26.636 l 0.166,0 c 0.135,-0.002 0.268,-0.002 0.402,-0.003 -0.187,0.93 -0.368,1.859 -0.546,2.786 0.24,1.145 1.433,4.356 6.64,4.926 -0.002,-0.01 -0.002,-0.021 -0.003,-0.031 -0.004,-0.035 -0.01,-0.071 -0.014,-0.107 -0.003,-0.032 -0.008,-0.065 -0.012,-0.097 -0.019,-0.148 -0.038,-0.295 -0.058,-0.443 0.82,0.012 1.638,0.022 2.459,0.032 -0.016,0.149 -0.032,0.296 -0.048,0.446 -0.003,0.034 -0.006,0.069 -0.011,0.102 -0.003,0.035 -0.007,0.07 -0.01,0.104 -0.002,0.014 -0.004,0.029 -0.006,0.044 5.923,-0.378 7.524,-4.34 7.741,-4.948 -0.192,-0.955 -0.383,-1.911 -0.573,-2.867 l 0.289,0 0.164,0 c 0.006,-6.907 0.066,-13.813 0.15,-20.721 l 3.576,3.576 2.921,-2.921 c 0.08,6.688 0.138,13.377 0.141,20.066 l 0.166,0 0.289,0 c -0.19,0.956 -0.382,1.912 -0.573,2.867 0.213,0.609 1.818,4.57 7.74,4.948 -0.002,-0.015 -0.003,-0.03 -0.005,-0.044 -0.004,-0.034 -0.008,-0.069 -0.011,-0.104 -0.003,-0.033 -0.007,-0.068 -0.01,-0.102 -0.017,-0.15 -0.032,-0.297 -0.047,-0.446 0.819,-0.01 1.639,-0.02 2.457,-0.032 -0.019,0.148 -0.037,0.295 -0.057,0.443 -0.004,0.032 -0.007,0.065 -0.012,0.097 -0.004,0.036 -0.009,0.072 -0.013,0.107 -0.002,0.01 -0.005,0.021 -0.006,0.031 5.205,-0.57 6.4,-3.781 6.642,-4.926 -0.178,-0.927 -0.359,-1.856 -0.546,-2.786 0.134,10e-4 0.268,10e-4 0.4,0.003 l 0.166,0 c -0.046,-8.952 -0.513,-17.905 -1.403,-26.857 -0.01,-0.09 -0.018,-0.18 -0.027,-0.272 3.264,0.779 6.451,1.756 9.534,2.944 0.003,0.018 0.006,0.034 0.007,0.053 1.542,10.358 2.15,20.717 1.821,31.075 C 0.3,-3.027 0.354,-3.029 0.409,-3.032 0.505,-3.035 0.601,-3.038 0.696,-3.041 0.508,-2.276 0.314,-1.509 0.115,-0.74 0.051,-0.496 0.012,-0.247 0,0" /></g><g
           id="g396"><g
             id="g398" /><g
             id="g408"><g
               id="g410"
               clip-path="url(#clipPath400)"><g
                 id="g412"><g
                   id="g414"
                   clip-path="url(#clipPath404)"><g
                     id="g416"
                     transform="translate(162.7062,148.9064)"><path
                       id="path418"
                       style="fill:#8e9597;fill-opacity:1;fill-rule:nonzero;stroke:none"
                       d="m 0,0 c -24.824,0 -44.948,-18.651 -44.948,-41.659 l 0,-3.729 1.321,0 0,3.289 c 0,23.008 20.125,41.659 44.948,41.659 5.068,0 9.94,-0.778 14.485,-2.212 C 10.889,-0.939 5.562,0 0,0" /></g></g></g></g></g></g><g
           transform="translate(46.8917,9.2931)"
           id="g420"><path
             id="path422"
             style="fill:#48474f;fill-opacity:1;fill-rule:nonzero;stroke:none"
             d="m 0,0 0,4.527 -5.383,0 0,-4.527 -1.814,0 0,10.346 1.814,0 0,-4.219 5.383,0 0,4.219 1.814,0 L 1.814,0 0,0 Z" /></g><g
           transform="translate(52.1827,10.2228)"
           id="g424"><path
             id="path426"
             style="fill:#48474f;fill-opacity:1;fill-rule:nonzero;stroke:none"
             d="M 0,0 C 0,0.574 0.496,1.07 1.086,1.07 1.676,1.07 2.172,0.574 2.172,0 2.172,-0.59 1.676,-1.102 1.086,-1.102 0.496,-1.102 0,-0.59 0,0" /></g><g
           transform="translate(67.5109,17.8243)"
           id="g428"><path
             id="path430"
             style="fill:#48474f;fill-opacity:1;fill-rule:nonzero;stroke:none"
             d="m 0,0 -1.863,-4.934 3.723,0 L 0,0 Z m 3.133,-8.531 -0.76,2 -4.748,0 -0.759,-2 -2.063,0 4.064,10.343 2.264,0 4.064,-10.343 -2.062,0 z" /></g><g
           transform="translate(77.3155,9.2931)"
           id="g432"><path
             id="path434"
             style="fill:#48474f;fill-opacity:1;fill-rule:nonzero;stroke:none"
             d="m 0,0 0,4.295 -4.018,6.051 2.079,0 2.837,-4.422 2.839,4.422 2.079,0 L 1.814,4.295 1.814,0 0,0 Z" /></g><g
           transform="translate(85.8019,13.3868)"
           id="g436"><path
             id="path438"
             style="fill:#48474f;fill-opacity:1;fill-rule:nonzero;stroke:none"
             d="m 0,0 0,6.252 1.846,0 0,-6.205 c 0,-1.645 0.915,-2.715 2.636,-2.715 1.721,0 2.637,1.07 2.637,2.715 l 0,6.205 1.846,0 0,-6.252 C 8.965,-2.559 7.492,-4.279 4.482,-4.279 1.488,-4.279 0,-2.559 0,0" /></g><g
           transform="translate(105.7355,9.2931)"
           id="g440"><path
             id="path442"
             style="fill:#48474f;fill-opacity:1;fill-rule:nonzero;stroke:none"
             d="m 0,0 -5.398,7.398 0,-7.398 -1.815,0 0,10.346 1.861,0 5.29,-7.166 0,7.166 1.814,0 L 1.752,0 0,0 Z" /></g><g
           transform="translate(113.7101,9.2931)"
           id="g444"><path
             id="path446"
             style="fill:#48474f;fill-opacity:1;fill-rule:nonzero;stroke:none"
             d="m 0,0 0,8.748 -3.133,0 0,1.598 8.08,0 0,-1.598 -3.133,0 L 1.814,0 0,0 Z" /></g><g
           transform="translate(124.8487,17.8243)"
           id="g448"><path
             id="path450"
             style="fill:#48474f;fill-opacity:1;fill-rule:nonzero;stroke:none"
             d="m 0,0 -1.861,-4.934 3.722,0 L 0,0 Z m 3.133,-8.531 -0.76,2 -4.746,0 -0.76,-2 -2.064,0 4.065,10.343 2.265,0 4.063,-10.343 -2.063,0 z" /></g><g
           transform="translate(141.6495,9.2931)"
           id="g452"><path
             id="path454"
             style="fill:#48474f;fill-opacity:1;fill-rule:nonzero;stroke:none"
             d="M 0,0 0,7.986 -3.164,0 -3.94,0 -7.12,7.986 -7.12,0 l -1.814,0 0,10.346 2.559,0 2.822,-7.106 2.808,7.106 2.559,0 L 1.814,0 0,0 Z" /></g><path
           id="path456"
           style="fill:#48474f;fill-opacity:1;fill-rule:nonzero;stroke:none"
           d="m 147.22,19.639 1.814,0 0,-10.346 -1.814,0 0,10.346 z" /><g
           transform="translate(152.7902,9.2931)"
           id="g458"><path
             id="path460"
             style="fill:#48474f;fill-opacity:1;fill-rule:nonzero;stroke:none"
             d="m 0,0 0,10.346 7.088,0 0,-1.598 -5.274,0 0,-2.668 5.165,0 0,-1.598 -5.165,0 0,-2.886 5.274,0 L 7.088,0 0,0 Z" /></g><g
           transform="translate(170.4894,9.2931)"
           id="g462"><path
             id="path464"
             style="fill:#48474f;fill-opacity:1;fill-rule:nonzero;stroke:none"
             d="m 0,0 -5.398,7.398 0,-7.398 -1.814,0 0,10.346 1.861,0 5.289,-7.166 0,7.166 1.815,0 L 1.753,0 0,0 Z" /></g><g
           transform="translate(178.465,9.2931)"
           id="g466"><path
             id="path468"
             style="fill:#48474f;fill-opacity:1;fill-rule:nonzero;stroke:none"
             d="m 0,0 0,8.748 -3.134,0 0,1.598 8.081,0 0,-1.598 -3.134,0 L 1.813,0 0,0 Z" /></g><g
           transform="translate(194.3653,14.4571)"
           id="g470"><path
             id="path472"
             style="fill:#48474f;fill-opacity:1;fill-rule:nonzero;stroke:none"
             d="m 0,0 c 0,2.141 -1.349,3.738 -3.428,3.738 -2.093,0 -3.427,-1.597 -3.427,-3.738 0,-2.125 1.334,-3.738 3.427,-3.738 C -1.349,-3.738 0,-2.125 0,0 m -8.717,0 c 0,3.088 2.187,5.352 5.289,5.352 3.087,0 5.29,-2.264 5.29,-5.352 0,-3.086 -2.203,-5.352 -5.29,-5.352 -3.102,0 -5.289,2.266 -5.289,5.352" /></g><g
           transform="translate(204.7296,9.2931)"
           id="g474"><path
             id="path476"
             style="fill:#48474f;fill-opacity:1;fill-rule:nonzero;stroke:none"
             d="M 0,0 0,1.441 C 4.018,4.482 5.6,5.816 5.6,7.32 5.6,8.406 4.653,8.887 3.707,8.887 2.497,8.887 1.582,8.406 0.915,7.662 L -0.14,8.84 c 0.915,1.119 2.374,1.66 3.832,1.66 2.001,0 3.739,-1.115 3.739,-3.18 0,-1.924 -1.753,-3.629 -4.515,-5.724 l 4.576,0 L 7.492,0 0,0 Z" /></g><g
           transform="translate(221.8097,14.4571)"
           id="g478"><path
             id="path480"
             style="fill:#48474f;fill-opacity:1;fill-rule:nonzero;stroke:none"
             d="m 0,0 c 0,1.984 -0.59,3.723 -2.28,3.723 -1.692,0 -2.295,-1.739 -2.295,-3.723 0,-1.971 0.603,-3.738 2.295,-3.738 C -0.605,-3.738 0,-1.971 0,0 m -6.422,0 c 0,2.605 1.226,5.336 4.142,5.336 2.901,0 4.126,-2.731 4.126,-5.336 0,-2.59 -1.225,-5.352 -4.126,-5.352 -2.916,0 -4.142,2.762 -4.142,5.352" /></g><g
           transform="translate(228.838,9.2931)"
           id="g482"><path
             id="path484"
             style="fill:#48474f;fill-opacity:1;fill-rule:nonzero;stroke:none"
             d="m 0,0 0,8.004 -1.691,-1.77 -1.054,1.102 2.977,3.01 1.582,0 L 1.814,0 0,0 Z" /></g><g
           transform="translate(240.1935,12.5177)"
           id="g486"><path
             id="path488"
             style="fill:#48474f;fill-opacity:1;fill-rule:nonzero;stroke:none"
             d="m 0,0 c 0,1.273 -0.992,1.846 -2.108,1.846 -0.885,0 -1.754,-0.465 -2.266,-1.209 0.094,-1.117 0.715,-2.436 2.295,-2.436 C -0.714,-1.799 0,-0.822 0,0 m -6.234,1.939 c 0,2.979 1.565,5.336 4.559,5.336 1.273,0 2.266,-0.449 2.963,-1.148 L 0.45,4.762 c -0.543,0.558 -1.147,0.9 -2.125,0.9 -1.738,0 -2.729,-1.598 -2.729,-3.412 l 0,-0.295 c 0.479,0.699 1.565,1.459 2.775,1.459 1.862,0 3.476,-1.148 3.476,-3.35 0,-1.908 -1.505,-3.476 -3.817,-3.476 -3.04,0 -4.264,2.467 -4.264,5.351" /></g><g
           transform="translate(247.0362,11.2931)"
           id="g490"><path
             id="path492"
             style="fill:#48474f;fill-opacity:1;fill-rule:nonzero;stroke:none"
             d="m 0,0 c -0.977,0 -1.767,0.791 -1.767,1.752 0,0.977 0.79,1.769 1.767,1.769 0.978,0 1.769,-0.792 1.769,-1.769 C 1.769,0.791 0.978,0 0,0" /></g><g
           transform="translate(252.128,9.2931)"
           id="g494"><path
             id="path496"
             style="fill:#48474f;fill-opacity:1;fill-rule:nonzero;stroke:none"
             d="M 0,0 0,1.441 C 4.017,4.482 5.599,5.816 5.599,7.32 5.599,8.406 4.652,8.887 3.707,8.887 2.496,8.887 1.582,8.406 0.914,7.662 L -0.141,8.84 C 0.775,9.959 2.233,10.5 3.691,10.5 5.692,10.5 7.43,9.385 7.43,7.32 7.43,5.396 5.677,3.691 2.916,1.596 l 4.575,0 L 7.491,0 0,0 Z" /></g><g
           transform="translate(269.2071,14.4571)"
           id="g498"><path
             id="path500"
             style="fill:#48474f;fill-opacity:1;fill-rule:nonzero;stroke:none"
             d="m 0,0 c 0,1.984 -0.589,3.723 -2.28,3.723 -1.691,0 -2.295,-1.739 -2.295,-3.723 0,-1.971 0.604,-3.738 2.295,-3.738 C -0.604,-3.738 0,-1.971 0,0 m -6.421,0 c 0,2.605 1.225,5.336 4.141,5.336 2.9,0 4.126,-2.731 4.126,-5.336 0,-2.59 -1.226,-5.352 -4.126,-5.352 -2.916,0 -4.141,2.762 -4.141,5.352" /></g><g
           transform="translate(276.2355,9.2931)"
           id="g502"><path
             id="path504"
             style="fill:#48474f;fill-opacity:1;fill-rule:nonzero;stroke:none"
             d="m 0,0 0,8.004 -1.691,-1.77 -1.054,1.102 2.978,3.01 1.581,0 L 1.814,0 0,0 Z" /></g><g
           transform="translate(287.2804,16.7989)"
           id="g506"><path
             id="path508"
             style="fill:#48474f;fill-opacity:1;fill-rule:nonzero;stroke:none"
             d="m 0,0 c 0,0.885 -0.837,1.381 -1.954,1.381 -1.117,0 -1.955,-0.496 -1.955,-1.381 0,-0.961 1.335,-1.334 1.955,-1.441 C -1.318,-1.334 0,-0.961 0,0 m 0.171,-4.605 c 0,1.07 -1.489,1.535 -2.125,1.629 -0.653,-0.094 -2.125,-0.559 -2.125,-1.629 0,-0.916 0.946,-1.475 2.125,-1.475 1.147,0 2.125,0.559 2.125,1.475 M -5.926,-4.84 c 0,1.305 1.071,2.25 2.327,2.67 -1.164,0.371 -2.156,1.149 -2.156,2.449 0,1.924 1.971,2.715 3.801,2.715 1.83,0 3.8,-0.791 3.8,-2.715 0,-1.3 -0.994,-2.078 -2.157,-2.449 1.256,-0.42 2.328,-1.365 2.328,-2.67 0,-1.859 -1.863,-2.851 -3.971,-2.851 -2.125,0 -3.972,0.992 -3.972,2.851" /></g><g
           transform="translate(14.672,30.461)"
           id="g510"><path
             id="path512"
             style="fill:#48474f;fill-opacity:1;fill-rule:nonzero;stroke:none"
             d="m 0,0 1.485,1.82 c 1.486,-1.867 4.218,-3.4 7.476,-3.4 3.881,0 6.182,2.012 6.182,4.695 0,6.326 -14.615,2.731 -14.615,11.069 0,3.548 3.018,6.423 8.24,6.423 3.98,0 6.615,-1.534 8.292,-3.402 l -1.389,-1.773 c -1.344,1.821 -3.834,3.066 -6.903,3.066 -3.593,0 -5.748,-1.822 -5.748,-4.216 0,-5.798 14.567,-2.254 14.567,-11.167 0,-3.738 -2.875,-6.804 -8.673,-6.804 C 5.175,-3.689 2.3,-2.586 0,0" /></g><g
           transform="translate(48.6007,31.8985)"
           id="g514"><path
             id="path516"
             style="fill:#48474f;fill-opacity:1;fill-rule:nonzero;stroke:none"
             d="m 0,0 0,5.08 c -1.629,2.157 -4.217,3.211 -6.996,3.211 -3.785,0 -6.326,-2.445 -6.326,-5.75 0,-3.26 2.541,-5.703 6.326,-5.703 2.779,0 5.367,1.055 6.996,3.162 m 0,-4.553 0,2.733 c -2.061,-2.252 -4.648,-3.307 -7.858,-3.307 -3.978,0 -8.099,2.731 -8.099,7.715 0,5.032 4.073,7.666 8.099,7.666 3.21,0 5.845,-1.053 7.858,-3.305 l 0,4.698 c 0,3.449 -2.779,5.318 -6.182,5.318 -2.923,0 -5.175,-1.007 -7.283,-3.402 l -1.389,1.724 c 2.395,2.589 5.079,3.882 8.912,3.882 4.698,0 8.434,-2.252 8.434,-7.427 l 0,-16.295 -2.492,0 z" /></g><g
           transform="translate(69.6876,27.3458)"
           id="g518"><path
             id="path520"
             style="fill:#48474f;fill-opacity:1;fill-rule:nonzero;stroke:none"
             d="m 0,0 0,15.672 c 0,4.455 -2.252,5.797 -5.606,5.797 -2.972,0 -6.037,-1.869 -7.524,-3.978 l 0,-17.491 -2.492,0 0,23.147 2.492,0 0,-3.499 c 1.677,2.013 4.983,4.074 8.338,4.074 4.697,0 7.284,-2.302 7.284,-7.524 L 2.492,0 0,0 Z" /></g><g
           transform="translate(103.1378,27.3458)"
           id="g522"><path
             id="path524"
             style="fill:#48474f;fill-opacity:1;fill-rule:nonzero;stroke:none"
             d="m 0,0 0,14.09 c 0,1.773 -0.861,3.116 -3.066,3.116 -2.014,0 -3.452,-1.295 -4.17,-2.252 l 0,-14.954 -7.379,0 0,14.09 c 0,1.773 -0.817,3.116 -3.02,3.116 -2.011,0 -3.402,-1.295 -4.17,-2.252 l 0,-14.954 -7.379,0 0,23.147 7.379,0 0,-2.828 c 1.007,1.342 3.979,3.403 7.621,3.403 3.354,0 5.606,-1.39 6.565,-4.122 1.342,2.014 4.36,4.122 8.002,4.122 4.265,0 6.948,-2.204 6.948,-6.948 L 7.331,0 0,0 Z" /></g><g
           transform="translate(127.1495,33.2872)"
           id="g526"><path
             id="path528"
             style="fill:#48474f;fill-opacity:1;fill-rule:nonzero;stroke:none"
             d="m 0,0 0,2.063 c -0.767,1.101 -2.492,1.628 -4.122,1.628 -1.916,0 -3.689,-0.863 -3.689,-2.683 0,-1.82 1.773,-2.684 3.689,-2.684 1.63,0 3.355,0.574 4.122,1.676 m 0,-5.939 0,2.298 c -1.437,-1.726 -4.217,-2.875 -7.187,-2.875 -3.545,0 -7.956,2.444 -7.956,7.62 0,5.607 4.411,7.475 7.956,7.475 3.065,0 5.797,-1.006 7.187,-2.732 l 0,2.302 c 0,2.012 -1.725,3.401 -4.695,3.401 -2.301,0 -4.602,-0.91 -6.471,-2.492 l -2.732,5.13 c 2.972,2.537 6.951,3.594 10.496,3.594 5.559,0 10.781,-2.062 10.781,-9.25 l 0,-14.471 -7.379,0 z" /></g><g
           transform="translate(139.0362,33.5763)"
           id="g530"><path
             id="path532"
             style="fill:#48474f;fill-opacity:1;fill-rule:nonzero;stroke:none"
             d="m 0,0 0,10.542 -3.834,0 0,6.374 3.834,0 0,6.325 7.379,0 0,-6.325 4.697,0 0,-6.374 -4.697,0 0,-8.483 c 0,-1.34 0.767,-2.348 2.013,-2.348 0.815,0 1.629,0.289 1.869,0.576 l 1.438,-5.558 C 11.789,-6.135 9.968,-6.805 7.236,-6.805 2.539,-6.805 0,-4.459 0,0" /></g><g
           transform="translate(163.1407,45.1256)"
           id="g534"><path
             id="path536"
             style="fill:#48474f;fill-opacity:1;fill-rule:nonzero;stroke:none"
             d="m 0,0 c -3.211,0 -4.456,-1.918 -4.744,-3.594 l 9.536,0 C 4.601,-1.964 3.402,0 0,0 m -12.268,-6.182 c 0,6.708 5.033,12.123 12.268,12.123 6.854,0 11.835,-5.03 11.835,-12.889 l 0,-1.678 -16.482,0 c 0.525,-2.062 2.443,-3.785 5.797,-3.785 1.63,0 4.313,0.717 5.655,1.963 l 3.209,-4.838 c -2.299,-2.062 -6.132,-3.068 -9.679,-3.068 -7.14,0 -12.603,4.648 -12.603,12.172" /></g><g
           transform="translate(192.3732,38.944)"
           id="g538"><path
             id="path540"
             style="fill:#48474f;fill-opacity:1;fill-rule:nonzero;stroke:none"
             d="m 0,0 c 0,3.066 -1.821,5.605 -5.079,5.605 -3.163,0 -4.984,-2.539 -4.984,-5.605 0,-3.116 1.821,-5.655 4.984,-5.655 C -1.821,-5.655 0,-3.116 0,0 m -17.635,0 c 0,6.518 4.696,12.123 12.556,12.123 7.955,0 12.651,-5.605 12.651,-12.123 0,-6.518 -4.696,-12.172 -12.651,-12.172 -7.86,0 -12.556,5.654 -12.556,12.172" /></g><g
           transform="translate(217.3429,31.8985)"
           id="g542"><path
             id="path544"
             style="fill:#48474f;fill-opacity:1;fill-rule:nonzero;stroke:none"
             d="m 0,0 0,5.08 c -1.63,2.157 -4.218,3.211 -6.996,3.211 -3.786,0 -6.326,-2.445 -6.326,-5.75 0,-3.26 2.54,-5.703 6.326,-5.703 2.778,0 5.366,1.055 6.996,3.162 m 0,-4.553 0,2.733 c -2.061,-2.252 -4.648,-3.307 -7.86,-3.307 -3.977,0 -8.099,2.731 -8.099,7.715 0,5.032 4.074,7.666 8.099,7.666 3.212,0 5.847,-1.053 7.86,-3.305 l 0,4.698 c 0,3.449 -2.78,5.318 -6.183,5.318 -2.922,0 -5.175,-1.007 -7.282,-3.402 l -1.392,1.724 c 2.397,2.589 5.081,3.882 8.914,3.882 4.696,0 8.435,-2.252 8.435,-7.427 l 0,-16.295 -2.492,0 z" /></g><g
           transform="translate(223.2862,31.8028)"
           id="g546"><path
             id="path548"
             style="fill:#48474f;fill-opacity:1;fill-rule:nonzero;stroke:none"
             d="m 0,0 0,16.485 -3.834,0 0,2.205 3.834,0 0,6.324 2.54,0 0,-6.324 4.696,0 0,-2.205 -4.696,0 0,-16.102 c 0,-1.867 0.766,-3.16 2.396,-3.16 1.102,0 2.06,0.525 2.585,1.101 L 8.48,-3.594 C 7.571,-4.457 6.469,-5.031 4.553,-5.031 1.485,-5.031 0,-3.164 0,0" /></g><g
           transform="translate(240.9679,48.9108)"
           id="g550"><path
             id="path552"
             style="fill:#48474f;fill-opacity:1;fill-rule:nonzero;stroke:none"
             d="m 0,0 c -5.462,0 -8.192,-4.791 -8.386,-8.816 l 16.822,0 C 8.387,-4.889 5.798,0 0,0 m -11.069,-9.967 c 0,6.709 4.695,12.123 11.117,12.123 7.046,0 10.928,-5.557 10.928,-12.267 l 0,-0.671 -19.362,0 c 0.242,-5.031 3.595,-9.201 9.058,-9.201 2.923,0 5.605,1.102 7.571,3.211 l 1.294,-1.629 c -2.301,-2.396 -5.223,-3.738 -9.057,-3.738 -6.756,0 -11.549,5.031 -11.549,12.172" /></g><g
           transform="translate(269.1944,27.3458)"
           id="g554"><path
             id="path556"
             style="fill:#48474f;fill-opacity:1;fill-rule:nonzero;stroke:none"
             d="m 0,0 0,15.672 c 0,4.455 -2.252,5.797 -5.605,5.797 -2.972,0 -6.041,-1.869 -7.525,-3.978 l 0,-17.491 -2.491,0 0,23.147 2.491,0 0,-3.499 c 1.678,2.013 4.984,4.074 8.339,4.074 4.695,0 7.283,-2.302 7.283,-7.524 L 2.492,0 0,0 Z" /></g><g
           transform="translate(273.3663,38.944)"
           id="g558"><path
             id="path560"
             style="fill:#48474f;fill-opacity:1;fill-rule:nonzero;stroke:none"
             d="m 0,0 c 0,6.757 4.408,12.123 11.213,12.123 4.025,0 6.326,-1.581 8.194,-3.93 L 17.683,6.66 C 16.007,8.961 13.898,9.871 11.357,9.871 5.942,9.871 2.635,5.559 2.635,0 c 0,-5.561 3.307,-9.921 8.722,-9.921 2.541,0 4.65,0.958 6.326,3.258 l 1.724,-1.533 c -1.868,-2.396 -4.169,-3.976 -8.194,-3.976 C 4.408,-12.172 0,-6.758 0,0" /></g><g
           transform="translate(311.7989,38.944)"
           id="g562"><path
             id="path564"
             style="fill:#48474f;fill-opacity:1;fill-rule:nonzero;stroke:none"
             d="m 0,0 c 0,5.127 -3.02,9.871 -8.482,9.871 -5.368,0 -8.434,-4.744 -8.434,-9.871 0,-5.176 3.066,-9.921 8.434,-9.921 C -3.02,-9.921 0,-5.176 0,0 m -19.551,0 c 0,6.757 4.314,12.123 11.069,12.123 6.852,0 11.166,-5.366 11.166,-12.123 0,-6.758 -4.314,-12.172 -11.166,-12.172 -6.755,0 -11.069,5.414 -11.069,12.172" /></g></g></g></g></svg>